<?xml version="1.0" encoding="utf-8"?>
<!-- Generator: Adobe Illustrator 21.0.0, SVG Export Plug-In . SVG Version: 6.00 Build 0)  -->
<svg version="1.1" id="Capa_1" xmlns="http://www.w3.org/2000/svg" xmlns:xlink="http://www.w3.org/1999/xlink" x="0px" y="0px"
	 viewBox="0 0 776 813.1" style="enable-background:new 0 0 776 813.1;" xml:space="preserve">
<style type="text/css">
	.st0{fill:url(#SVGID_1_);}
	.st1{fill:url(#SVGID_2_);}
	.st2{fill:url(#SVGID_3_);}
	.st3{fill:url(#SVGID_4_);}
	.st4{fill:url(#SVGID_5_);}
	.st5{fill:url(#SVGID_6_);}
	.st6{fill:url(#SVGID_7_);}
	.st7{fill:url(#SVGID_8_);}
	.st8{fill:url(#SVGID_9_);}
	.st9{fill:url(#SVGID_10_);}
	.st10{fill:url(#SVGID_11_);}
	.st11{fill:url(#SVGID_12_);}
	.st12{fill:url(#SVGID_13_);}
	.st13{fill:url(#SVGID_14_);}
	.st14{fill:url(#SVGID_15_);}
	.st15{fill:url(#SVGID_16_);}
	.st16{fill:url(#SVGID_17_);}
	.st17{fill:url(#SVGID_18_);}
	.st18{fill:url(#SVGID_19_);}
	.st19{fill:url(#SVGID_20_);}
	.st20{fill:url(#SVGID_21_);}
	.st21{fill:url(#SVGID_22_);}
	.st22{fill:url(#SVGID_23_);}
	.st23{fill:url(#SVGID_24_);}
	.st24{fill:url(#SVGID_25_);}
	.st25{fill:url(#SVGID_26_);}
	.st26{fill:url(#SVGID_27_);}
	.st27{fill:url(#SVGID_28_);}
	.st28{fill:url(#SVGID_29_);}
	.st29{fill:url(#SVGID_30_);}
	.st30{fill:url(#SVGID_31_);}
	.st31{fill:url(#SVGID_32_);}
	.st32{fill:url(#SVGID_33_);}
	.st33{fill:url(#SVGID_34_);}
	.st34{fill:url(#SVGID_35_);}
	.st35{fill:url(#SVGID_36_);}
	.st36{fill:url(#SVGID_37_);}
	.st37{fill:url(#SVGID_38_);}
	.st38{fill:url(#SVGID_39_);}
	.st39{fill:url(#SVGID_40_);}
	.st40{fill:url(#SVGID_41_);}
	.st41{fill:url(#SVGID_42_);}
	.st42{fill:url(#SVGID_43_);}
	.st43{fill:url(#SVGID_44_);}
	.st44{fill:url(#SVGID_45_);}
	.st45{fill:url(#SVGID_46_);}
	.st46{fill:url(#SVGID_47_);}
	.st47{fill:url(#SVGID_48_);}
	.st48{fill:url(#SVGID_49_);}
	.st49{fill:url(#SVGID_50_);}
	.st50{fill:url(#SVGID_51_);}
	.st51{fill:url(#SVGID_52_);}
	.st52{fill:url(#SVGID_53_);}
	.st53{fill:url(#SVGID_54_);}
	.st54{fill:url(#SVGID_55_);}
	.st55{fill:url(#SVGID_56_);}
	.st56{fill:url(#SVGID_57_);}
	.st57{fill:url(#SVGID_58_);}
	.st58{fill:url(#SVGID_59_);}
	.st59{fill:url(#SVGID_60_);}
	.st60{fill:url(#SVGID_61_);}
	.st61{fill:url(#SVGID_62_);}
	.st62{fill:url(#SVGID_63_);}
	.st63{fill:url(#SVGID_64_);}
	.st64{fill:url(#SVGID_65_);}
	.st65{fill:url(#SVGID_66_);}
	.st66{fill:url(#SVGID_67_);}
	.st67{fill:url(#SVGID_68_);}
	.st68{fill:url(#SVGID_69_);}
	.st69{fill:url(#SVGID_70_);}
	.st70{fill:url(#SVGID_71_);}
	.st71{fill:url(#SVGID_72_);}
	.st72{fill:url(#SVGID_73_);}
	.st73{fill:#FFFFFF;stroke:#211915;stroke-miterlimit:10;}
	.st74{fill:url(#SVGID_74_);}
	.st75{fill:url(#SVGID_75_);}
	.st76{fill:#FCFCFC;stroke:#221A16;stroke-miterlimit:10;}
</style>
<linearGradient id="SVGID_1_" gradientUnits="userSpaceOnUse" x1="300.5143" y1="380.7874" x2="300.5143" y2="472.0535" gradientTransform="matrix(0 1 -1 0 801.3597 6.0268)">
	<stop  offset="0" style="stop-color:#686868"/>
	<stop  offset="0.867" style="stop-color:#000000"/>
</linearGradient>
<path class="st0" d="M361.3,255.8c3.7-0.1,7.4-0.5,11-1.3c0.9-0.2,1.8-0.2,2.1,0.1c0.4,0.4-0.2,1.5-2.9,3.9
	c-8.8,7.5-23,13.8-42.2,17.5l11.6,9.4c13.4-2.3,24.5-4.5,25.5-4.4c1.5,0.2,2.7,0.9,4.1,2.2c0.1,0.1,0.2,0.2,0.3,0.3
	c2.4,2.4,2.3,6.3-0.3,8.6c-10.9,9.5-21.8,17.4-32.6,23.9l16.8,13.3c4.1-1.9,8.2-3.9,12.2-6.1c1.4-0.8,2.9-0.4,3.8,0.6
	c1,1,1.4,2.6,0.5,4c-5,8-12.6,19.4-21.6,30.5l16.4,3.4l3.8-0.1c0.4-0.1,0.8-0.1,1.2,0l49.6-0.9l-39.5-8.2c-0.6-0.1-1.1-0.4-1.5-0.8
	c-0.9-0.9-1.2-2.3-0.6-3.6l12.9-25c0.6-1.2,0.4-2.6-0.6-3.5l0,0l-15.6-15.2l0,0c-1.1-1.1-1.2-3-0.1-4.2l10.4-11.8
	c1-1.2,1-2.9-0.1-4.1l-11.9-12.7c-1.1-1.2-1.1-3,0-4.2l13.5-14c0.1-0.1,0.3-0.2,0.4-0.3l-49.9-1.8l-2.3,2.5
	C345.9,255.2,355,255.9,361.3,255.8z"/>
<linearGradient id="SVGID_2_" gradientUnits="userSpaceOnUse" x1="452.7147" y1="595.056" x2="452.7147" y2="693.6855" gradientTransform="matrix(0 1 -1 0 801.3597 6.0268)">
	<stop  offset="0" style="stop-color:#686868"/>
	<stop  offset="0.867" style="stop-color:#000000"/>
</linearGradient>
<path class="st1" d="M111.3,465.9c2.2,2.5,4.6,5,7,7.5c2.5,2.5,5,4.9,7.6,7.2c0.4,0.4,0.9,0.8,1.3,1.1c0.4-0.2,0.9-0.4,1.5-0.7
	c4.7-2.4,10.9-7,17.5-11.8c15.5-11.5,35.3-26,60.1-31.2c-8.7-0.7-17.1-1.3-25.6-1.4c-2.8-0.1-6.1-0.2-9.6-0.3
	c-4.7-0.1-10.2-0.3-16.1-0.4c-14,5.1-35,14.2-47.3,25.9c1.1,1.3,2.2,2.6,3.4,4C111.2,465.7,111.2,465.8,111.3,465.9z"/>
<g>
	
		<linearGradient id="SVGID_3_" gradientUnits="userSpaceOnUse" x1="490.8751" y1="389.407" x2="490.8751" y2="389.5135" gradientTransform="matrix(0 1 -1 0 801.3597 6.0268)">
		<stop  offset="0" style="stop-color:#686868"/>
		<stop  offset="0.867" style="stop-color:#000000"/>
	</linearGradient>
	<path class="st2" d="M412,496.8c0,0-0.1,0.1-0.1,0.1C411.9,496.9,411.9,496.9,412,496.8z"/>
	
		<linearGradient id="SVGID_4_" gradientUnits="userSpaceOnUse" x1="507.7462" y1="342.2236" x2="507.7462" y2="468.4648" gradientTransform="matrix(0 1 -1 0 801.3597 6.0268)">
		<stop  offset="0" style="stop-color:#686868"/>
		<stop  offset="0.867" style="stop-color:#000000"/>
	</linearGradient>
	<path class="st3" d="M333.3,577.6c0,0.1-0.1,0.1-0.1,0.2c0,0.1-0.1,0.2-0.1,0.3c0,0.1,0,0.2-0.1,0.3c-0.1,0.2,0,0.5-0.1,0.7
		c0,0.3,0,0.5,0,0.8c0.1,1.1,0.6,2.3,1.3,3.6c0.7,1.3,1.8,2.6,3,3.8c1.3,1.3,2.8,2.6,4.4,3.7c1.7,1.1,3.3,2.3,5.2,3.2
		c0.9,0.5,1.8,1,2.7,1.5l2.8,1.4c3.8,1.8,7.8,3.5,11.9,4.9c8.1,2.9,16.6,5.1,25.2,6.9c2.1,0.4,4.3,0.8,6.5,1.2l0.8,0.1l0.2,0l0.1,0
		l0.2,0c0.3,0.1,0.5,0,0.8,0.1c0.5,0,1.1-0.1,1.6-0.2c2.1-0.6,3.9-2.4,4.3-4.5c0-0.1,0-0.1,0.1-0.2l0.1-0.4l0.5-2.5l0.7-3.3l1.4-6.6
		l2.8-13.2c1.8-8.8,3.6-17.6,5.2-26.4c1.6-8.8,3.2-17.6,4.6-26.4c1.2-7.8,2.3-15.6,2.9-23.2c-2.4,0.3-4.7,0.5-7,0.7
		c-1.3,0.1-2.5-0.4-3.4-1.2c-0.7-0.7-1.1-1.6-1.2-2.6c-0.1-1.1,0.2-2.2,0.9-3c-0.7,0.8-1.1,2-1,3.1c0.1,1,0.5,1.9,1.2,2.6
		c0.8,0.9,2,1.3,3.3,1.2c2.2-0.2,4.5-0.4,6.8-0.7c-0.6,7.6-1.7,15.4-2.8,23.1c-1.3,8.8-2.9,17.6-4.5,26.4
		c-1.6,8.8-3.3,17.6-5.1,26.3l-2.7,13.1l-1.4,6.6l-0.7,3.3l-0.5,2.4l-0.1,0.4c0,0.1,0,0.2-0.1,0.2c-0.5,2.1-2.2,3.9-4.2,4.5
		c-0.5,0.2-1,0.2-1.6,0.2c-0.3,0-0.5,0-0.8-0.1l-0.2,0l-0.1,0l-0.2,0L396,610c-2.1-0.4-4.2-0.8-6.3-1.2c-8.3-1.7-16.6-3.9-24.5-6.8
		c-4-1.4-7.8-3-11.6-4.9l-2.8-1.4c-0.9-0.5-1.8-1-2.6-1.5c-1.8-1-3.4-2.1-5-3.2c-1.6-1.2-3-2.4-4.3-3.7c-1.2-1.2-2.2-2.5-3-3.8
		c-0.7-1.3-1.1-2.5-1.2-3.6c0-0.3,0-0.5,0-0.8c0.1-0.2,0-0.5,0.1-0.7c0-0.1,0-0.2,0.1-0.3c0-0.1,0.1-0.2,0.1-0.3
		c0-0.1,0.1-0.2,0.1-0.2c0,0,0,0,0,0v0c0,0-0.1,0.1-0.1,0.2l0.7-1.4l0.2-0.5l0.3-0.6c0.2-0.4,0.4-0.9,0.6-1.3
		c0.4-0.9,0.8-1.8,1.3-2.7l1.4-2.7l1.5-2.6c2-3.5,4.2-6.9,6.5-10.3c4.6-6.7,9.8-13.2,15.3-19.2c1.4-1.5,2.8-3,4.2-4.5l4.3-4.4
		l4.6-4.6c1.5-1.6,3-3.2,4.5-4.8c3-3.3,5.9-6.6,8.6-10.5c1.4-1.9,2.7-4,3.9-6.6l0.4-1.1l0.2-0.5c0.1-0.2,0.1-0.4,0.2-0.6
		c0.1-0.5,0.2-0.9,0.4-1.4c0-0.2,0.1-0.5,0.2-0.7c0-0.3,0.1-0.6,0.1-1c0.1-1.1,0.1-2.9-0.8-4.9c-0.2-0.5-0.5-1-0.8-1.5
		c-0.3-0.4-0.6-0.7-0.9-1c-0.1-0.1-0.3-0.3-0.4-0.4c-0.5-0.4-1-0.8-1.6-1.1c-0.1-0.1-0.3-0.2-0.5-0.2c-3.8-2.3-7.4-5.2-10.6-8.4
		c-3.7-3.8-6.8-8.1-9-12.9c-2.1-4.4-3.2-9.2-3.4-14c-0.2-4.7,0.8-9.5,2.7-13.8c3.9-8.6,12.1-15,21.5-17.9c9.5-3,20-2.9,29.8-0.1
		c9.5,2.7,18.5,7.8,25.5,14.9c0.2,0.2,0.4,0.4,0.6,0.7c1.7,1.9,3.3,3.9,4.8,6c0.7,1,1.4,2.1,2,3.2c0.6,1.1,1.2,2.2,1.7,3.4
		c2,4.6,3.1,9.5,3,14.4c-0.1,4.9-1.5,9.7-3.9,13.9c-0.3,0.6-0.6,1-1,1.5l-1,1.5l-1.2,1.4c-0.4,0.5-0.8,1-1.2,1.4l-1.3,1.3
		c-0.4,0.5-0.9,0.8-1.4,1.2l-1.5,1.2c-0.5,0.4-1,0.7-1.6,1l-1.6,1l-1.7,1c-1.2,0.7-2.4,1.3-3.5,1.9c-2.4,1.2-4.7,2.2-7.1,2.9
		c-0.6,0.2-1.3,0.4-1.9,0.5c0.9-0.2,1.7-0.4,2.5-0.7c2.5-0.7,4.8-1.7,7.2-2.9c1.2-0.6,2.4-1.2,3.6-1.9l1.8-1l1.6-1
		c0.5-0.4,1.1-0.6,1.6-1l1.5-1.2c0.5-0.4,1-0.8,1.4-1.2l1.4-1.3c0.5-0.4,0.9-0.9,1.3-1.4l1.2-1.4l1.1-1.5c0.3-0.5,0.7-1,1-1.6
		c2.5-4.2,3.9-9,4-13.9c0.1-4.9-1-9.9-3.1-14.4c-0.5-1.1-1.2-2.2-1.7-3.4c-0.7-1.1-1.3-2.2-2.1-3.2c-1.5-2.1-3.1-4.1-4.9-6
		c-0.2-0.2-0.4-0.4-0.7-0.7c-7.1-7.1-16.4-12.3-26.2-15c-10.1-2.8-20.9-3-30.6,0c-9.7,2.9-18.1,9.3-22,18c-2,4.3-2.9,9-2.8,13.8
		c0.2,4.8,1.4,9.6,3.5,14c2.3,4.8,5.5,9.1,9.3,12.9c3.2,3.2,6.9,6.1,10.9,8.4c0.2,0.1,0.4,0.2,0.5,0.2c0.6,0.3,1.1,0.7,1.6,1.1
		c0.1,0.1,0.3,0.3,0.4,0.4c0.3,0.3,0.6,0.7,0.9,1c0.3,0.5,0.6,1,0.9,1.5c0.9,2,0.9,3.7,0.8,4.9c0,0.3-0.1,0.7-0.1,1
		c-0.1,0.3-0.1,0.5-0.2,0.7c-0.1,0.5-0.2,0.9-0.4,1.4c-0.1,0.3-0.1,0.4-0.2,0.6l-0.2,0.5l-0.4,1.1c-1.2,2.6-2.6,4.7-4,6.6
		c-2.8,3.9-5.8,7.2-8.8,10.5c-1.5,1.6-3,3.2-4.6,4.8l-4.7,4.6l-4.4,4.4c-1.5,1.5-2.9,3-4.3,4.5c-5.6,6.1-10.9,12.5-15.7,19.3
		c-2.4,3.4-4.6,6.8-6.7,10.3l-1.5,2.6l-1.4,2.7c-0.4,0.9-0.9,1.8-1.3,2.7c-0.2,0.4-0.4,0.9-0.6,1.3l-0.3,0.6l-0.2,0.5l-0.7,1.4
		C333.2,577.7,333.3,577.6,333.3,577.6L333.3,577.6C333.3,577.6,333.3,577.6,333.3,577.6z"/>
	
		<linearGradient id="SVGID_5_" gradientUnits="userSpaceOnUse" x1="518.1371" y1="485.4508" x2="518.1371" y2="494.9499" gradientTransform="matrix(0 1 -1 0 801.3597 6.0268)">
		<stop  offset="0" style="stop-color:#686868"/>
		<stop  offset="0.867" style="stop-color:#000000"/>
	</linearGradient>
	<path class="st4" d="M315.9,518.9c-3.5,3.6-6.6,7.1-9.5,10.5C309.8,526.1,312.9,522.6,315.9,518.9z"/>
	
		<linearGradient id="SVGID_6_" gradientUnits="userSpaceOnUse" x1="508.4" y1="397.4527" x2="508.4" y2="511.1843" gradientTransform="matrix(0 1 -1 0 801.3597 6.0268)">
		<stop  offset="0" style="stop-color:#686868"/>
		<stop  offset="0.867" style="stop-color:#000000"/>
	</linearGradient>
	<path class="st5" d="M306.1,466.8c8.9-4.7,16-10.3,21.8-15.1c1.4-1.2,3.2-0.8,4.2,0.2c0.8,0.8,1.2,2.2,0.6,3.5
		c-4.7,10.8-7.2,23.3-19.3,42.3c3.9,4.3,8.8,6.5,12.1,7.5c3.7-6,7.1-12.2,10.1-18.5c1.9-3.9,3.1-8.4,5.2-12.2
		c1.6-2.9,2.3-4.2,3.5-3.1c0.5,0.5,1.1,1.5,1.9,3c2.3,4.3,1.9,9.1,3.3,13.6c0.9,3.1,3.1,5.8,4.4,8.7c0.4,0.9,0.8,1.9,1,2.9
		c0.6,3.1-0.5,6.3-2.4,8.8c-2.9,4-7.4,6.9-11.2,10.1c-9.2,7.9-16.5,18-22.7,28.4c-11.5,19.5-19.1,41.4-28.5,61.7
		c3.4,1.8,8.3,3.6,13.8,5.3l6.9-16.7c1.4-3.4,5.3-5,8.7-3.6c0.8,0.3,1.6,0.8,2.2,1.4c1.9,1.9,2.5,4.7,1.4,7.3l-6.3,15.3
		c11.7,3,22.1,5.1,22.1,5.1s49.2,1.3,56.2,1.3c1.3,0,2.4-0.1,3.3-0.3c-0.1,0-0.1,0-0.2,0c-0.9,0-1.7,0-2.6-0.1l-0.6-0.1l-0.3,0
		l-0.2,0l-0.9-0.1c-2.3-0.4-4.6-0.8-6.9-1.3c-9.1-1.8-18.2-4.2-27-7.4c-8.9-3.2-17.5-7-25.9-12.8c-2.1-1.5-4.1-3.2-6.1-5.1
		c-1.9-1.9-3.7-4.1-5.2-6.6c-1.5-2.6-2.7-5.7-3-9.1c0-0.9-0.1-1.7,0-2.6c0.1-0.9,0.1-1.7,0.3-2.6l0.3-1.3c0.1-0.4,0.3-0.9,0.4-1.3
		c0.1-0.4,0.4-0.9,0.5-1.3c0.1-0.2,0.2-0.5,0.3-0.7l0.1-0.1l0.1-0.4l0.4-0.9c0.2-0.6,0.5-1.1,0.7-1.6c0.5-1.1,1-2.1,1.5-3.1l1.6-3
		l1.7-3c2.3-3.9,4.7-7.6,7.3-11.3c5.2-7.3,10.8-14.1,16.8-20.6c1.5-1.6,3-3.2,4.6-4.8l4.7-4.7l4.5-4.4c1.5-1.5,2.9-3,4.3-4.5
		c2.8-3,5.5-6.1,7.7-9.2l0.4-0.6l0.4-0.6l0.8-1.1c0.2-0.4,0.4-0.7,0.6-1c-3.7-2.5-7.1-5.3-10.3-8.4c-5.1-5.1-9.3-10.9-12.3-17.6
		c-2.7-5.9-4.3-12.4-4.4-19c-0.1-6.6,1.4-13.4,4.3-19.3c2.9-6,7.3-11.2,12.5-15.2c5.2-4,11.1-6.8,17.1-8.6
		c5.7-1.6,11.6-2.4,17.4-2.4c-17.6-1.7-51.5-0.9-51.5-0.9s-0.6,0-1.7,0.1c-9.2,10.6-19.1,20.5-29.4,29.9c-4.9,4.5-10,8.8-15.4,12.5
		C305.3,454.1,305.6,460.7,306.1,466.8z"/>
</g>
<g>
	
		<linearGradient id="SVGID_7_" gradientUnits="userSpaceOnUse" x1="594.4278" y1="531.6832" x2="594.4278" y2="539.4626" gradientTransform="matrix(0 1 -1 0 801.3597 6.0268)">
		<stop  offset="0" style="stop-color:#686868"/>
		<stop  offset="0.867" style="stop-color:#000000"/>
	</linearGradient>
	<path class="st6" d="M266.2,601.8c1.2-2.4,2.3-4.9,3.5-7.4h-1.4l-6.4,12.1c0.6,0.1,1,0.1,1.3,0C263.7,606,264.8,604.7,266.2,601.8z
		"/>
	
		<linearGradient id="SVGID_8_" gradientUnits="userSpaceOnUse" x1="652.6566" y1="421.545" x2="652.6566" y2="565.6742" gradientTransform="matrix(0 1 -1 0 801.3597 6.0268)">
		<stop  offset="0" style="stop-color:#686868"/>
		<stop  offset="0.867" style="stop-color:#000000"/>
	</linearGradient>
	<path class="st7" d="M377.8,722.4c-5.9-0.3-12.8-1.1-20.3-2.9c-12.9-2.9-27.4-8.6-41.2-19l-1.8-1.3c-4.8-3.6-10.7-8-15.8-13.2
		c-6.3-6.3-11.6-13.8-12.4-22.2c-0.5-5,0.6-9.4,2.2-13.3c0.8-2,1.7-3.9,2.6-5.7c0.6-1.3,1.2-2.5,1.8-3.7c1.6-3.6,3.1-7.4,4.5-11.1
		c1-2.6,2-5.2,3.1-7.8l10.3-25c0.5-1.3,1.4-2.3,2.4-3h-16.7c-2.6,6.2-5.3,12.3-8.2,18.2c-3.1,6.4-7.4,12.6-13.7,15.9
		c-1.9,1-4,1.7-6.1,2.2c-4.9,1-10.2,0.6-15.1-0.8c-1.1-0.3-2.2-0.7-3.3-1l-11.8,22.5c0,0-10.9,12.3,11.4,36.1
		c22.3,23.7,60.8,35.1,76.9,35.1c16.1,0,53.2,0.5,53.2,0.5l-0.6-0.6C378.7,722.4,378.3,722.4,377.8,722.4z"/>
	
		<linearGradient id="SVGID_9_" gradientUnits="userSpaceOnUse" x1="698.695" y1="439.6701" x2="698.695" y2="453.7362" gradientTransform="matrix(0 1 -1 0 801.3597 6.0268)">
		<stop  offset="0" style="stop-color:#686868"/>
		<stop  offset="0.867" style="stop-color:#000000"/>
	</linearGradient>
	<path class="st8" d="M347.6,702.7c4.8,1.8,9.6,3.2,14.1,4.1L347.6,702.7z"/>
</g>
<g>
	
		<linearGradient id="SVGID_10_" gradientUnits="userSpaceOnUse" x1="546.0369" y1="459.1346" x2="546.0369" y2="641.27" gradientTransform="matrix(0 1 -1 0 801.3597 6.0268)">
		<stop  offset="0" style="stop-color:#686868"/>
		<stop  offset="0.867" style="stop-color:#000000"/>
	</linearGradient>
	<path class="st9" d="M260.9,631.1c-2.5-0.2-5.1-0.6-7.5-1.3c-6.6-1.9-13.2-5-19.2-9.1c-3-2.1-5.9-4.5-8.5-7.1
		c-2.5-2.5-4.7-5.2-6.6-8.1c-1.5-2.3-2.8-4.6-3.9-7.1c-1.9-4.5-3.1-9.5-2.1-14.2c0.5-2.4,1.4-4.5,2.7-6.3
		c7.7-11.4,27.9-13.8,39.4-18.1c18-6.8,35.9-15.8,49.9-29.2c13-12.3,22.9-27.9,30.5-44c1.9-3.9,3.1-8.4,5.2-12.2
		c0.5-1,1-1.7,1.4-2.3h-15.8c-4.2,10.9-10.6,24.3-25.4,42.8c-16.3,20.4-53.1,37.5-78.3,40.7c-3.2,0.4-6.6,0.8-10.1,1.2
		c-0.9,0.3-1.9,0.5-2.8,0.7c-56,13.6-58.5,27.5-37.3,53.5c21.2,25.9,48.7,20.3,48.7,20.3L260.9,631.1z"/>
	
		<linearGradient id="SVGID_11_" gradientUnits="userSpaceOnUse" x1="586.0079" y1="524.3831" x2="586.0079" y2="562.4948" gradientTransform="matrix(0 1 -1 0 801.3597 6.0268)">
		<stop  offset="0" style="stop-color:#686868"/>
		<stop  offset="0.867" style="stop-color:#000000"/>
	</linearGradient>
	<path class="st10" d="M276.9,577.6c0,0,0-0.1,0-0.1c-4.2,1.8-8.5,3.6-13,5.3c-4,1.5-8.3,2.7-12.4,3.8c-3.4,1-9,2.5-12.7,4
		c0.2,0.4,0.5,0.8,0.7,1.2c1,1.5,2.2,2.9,3.6,4.3c1.5,1.5,3.2,2.9,5.1,4.2c3.7,2.6,7.7,4.5,11.8,5.6c1.5,0.4,2.6,0.5,3.2,0.4
		c0.5-0.5,1.6-1.8,3-4.8C269.9,594.1,273.3,586.1,276.9,577.6z"/>
</g>
<g>
	
		<linearGradient id="SVGID_12_" gradientUnits="userSpaceOnUse" x1="408.7686" y1="364.7085" x2="426.9976" y2="387.019" gradientTransform="matrix(0 1 -1 0 801.3597 6.0268)">
		<stop  offset="0" style="stop-color:#686868"/>
		<stop  offset="0.4477" style="stop-color:#000000"/>
	</linearGradient>
	<path class="st11" d="M420.2,419.6c8.6,2.4,16.7,6.8,23.4,12.9l1.3,0c-6.9-6.3-15.4-10.8-24.4-13.3c-5.4-1.5-10.9-2.2-16.4-2.2
		c0.2,0.1,0.4,0.3,0.6,0.4C409.8,417.4,415.1,418.1,420.2,419.6z"/>
	
		<linearGradient id="SVGID_13_" gradientUnits="userSpaceOnUse" x1="354.7669" y1="435.5834" x2="374.9006" y2="460.2252" gradientTransform="matrix(0 1 -1 0 801.3597 6.0268)">
		<stop  offset="0" style="stop-color:#686868"/>
		<stop  offset="0.4477" style="stop-color:#000000"/>
	</linearGradient>
	<path class="st12" d="M348.5,367.1l-1.7,17c5.9-5.6,11.6-11.4,17.3-17H348.5z"/>
	
		<linearGradient id="SVGID_14_" gradientUnits="userSpaceOnUse" x1="291.0799" y1="265.1388" x2="315.1732" y2="294.6267" gradientTransform="matrix(0 1 -1 0 801.3597 6.0268)">
		<stop  offset="0" style="stop-color:#686868"/>
		<stop  offset="0.4477" style="stop-color:#000000"/>
	</linearGradient>
	<path class="st13" d="M506.8,316.9c9.5-2.4,18.5-6.8,26.5-13.1C525,308.1,515.9,312.7,506.8,316.9z"/>
	
		<linearGradient id="SVGID_15_" gradientUnits="userSpaceOnUse" x1="459.4055" y1="52.2556" x2="459.9037" y2="52.8654" gradientTransform="matrix(0 1 -1 0 801.3597 6.0268)">
		<stop  offset="0" style="stop-color:#686868"/>
		<stop  offset="0.4477" style="stop-color:#000000"/>
	</linearGradient>
	<path class="st14" d="M748.5,465.8l0.5,0l-0.1-0.6C748.7,465.5,748.6,465.7,748.5,465.8z"/>
	
		<linearGradient id="SVGID_16_" gradientUnits="userSpaceOnUse" x1="426.6552" y1="85.0883" x2="452.1404" y2="116.2796" gradientTransform="matrix(0 1 -1 0 801.3597 6.0268)">
		<stop  offset="0" style="stop-color:#686868"/>
		<stop  offset="0.4477" style="stop-color:#000000"/>
	</linearGradient>
	<path class="st15" d="M664.6,428.4c14.7,8.7,27.8,20,36.3,34.3l32.9,2.2C712.2,437.7,685,429.6,664.6,428.4z"/>
	
		<linearGradient id="SVGID_17_" gradientUnits="userSpaceOnUse" x1="196.5016" y1="134.4291" x2="441.6219" y2="434.4319" gradientTransform="matrix(0 1 -1 0 801.3597 6.0268)">
		<stop  offset="0" style="stop-color:#686868"/>
		<stop  offset="0.4477" style="stop-color:#000000"/>
	</linearGradient>
	<path class="st16" d="M589.6,291.7c-9.4,5.1-25.5,5.2-25.5,5.2s-4.3,0.3-6.1-1.5c-1-1-1.2-2.7,0.6-5.5c-2.3,1.3-4.7,2.7-7.4,4.2
		c-2.3,3-4.7,5.9-7.4,8.6c-15.5,15.5-36,23.1-56.5,22.5c-5.1,2-10.1,3.7-14.8,5.1c-15.7,11.4-48.1,29.5-49.7,30.3h0
		c-0.6,0.3-1.4,0.5-2.1,0.3l-23.5-4.9c-6.2,4.3-10.6,8.3-12.8,11.2h-12.8c-2.5,10-6.3,18.4-11.9,26.6c9.4,2.6,21.8,7,31.2,13.4
		c10.9-2.3,22.1-1.5,32.5,1.6c11.1,3.3,21.5,9.2,29.8,17.5c0.5,0.5,1,1,1.5,1.6c1.5,1.6,2.9,3.3,4.2,5l19.5,0.4c0,0,0,0,0-0.1
		c-0.9,0-1.8-0.4-2.5-1c-0.1-0.1-0.2-0.2-0.3-0.3c-0.9-1.2-1.9-2.3-3.1-3.5c-12.6-12.6-40.9-26-40.9-26
		c-23.6-11.3-42.9-11.7-50.7-11.3c-0.8,0-1.5-0.3-2-0.8c-0.6-0.6-0.9-1.6-0.7-2.6c1.5-5.3,4.3-14.7,5.1-17.2c1.1-3.5,5.4-3,5.4-3
		c11.6,0,14.7,1.7,37.7,4.2c37.7-29.9,49.7-35.2,81.6-37.1c31.9-1.9,82.6-38.1,117.4-49.7c3.6-1.2,7.3-1.9,11-2.3
		c3.7-0.4,7.5-0.3,11.2,0c-1.5-0.7-3.1-1.1-4.7-1.1c-2.1,0-15.7,0-30.4,0C604,284.8,594.6,289,589.6,291.7z"/>
	
		<linearGradient id="SVGID_18_" gradientUnits="userSpaceOnUse" x1="384.2574" y1="87.0745" x2="460.4341" y2="180.3073" gradientTransform="matrix(0 1 -1 0 801.3597 6.0268)">
		<stop  offset="0" style="stop-color:#686868"/>
		<stop  offset="0.4477" style="stop-color:#000000"/>
	</linearGradient>
	<path class="st17" d="M735.1,447.9c-2-2.4-4-4.7-6.2-6.8c-37.4-37.4-104.1-43.4-150.8-41.3c13.6,2,42.9,7.5,70.4,20.2
		c13.1,1.3,25.3,3.2,35,6.1c27.9,8.4,44.1,26.8,52,38.9l11,0.7C743.3,459.2,739.5,453.3,735.1,447.9z"/>
</g>
<g>
	
		<linearGradient id="SVGID_19_" gradientUnits="userSpaceOnUse" x1="246.3759" y1="230.4722" x2="246.3759" y2="452.5466" gradientTransform="matrix(0 1 -1 0 801.3597 6.0268)">
		<stop  offset="0" style="stop-color:#686868"/>
		<stop  offset="0.867" style="stop-color:#000000"/>
	</linearGradient>
	<path class="st18" d="M352.6,249.8c4.9,0,100.8,0.9,115.7,8.5c0.6,0.3,1.2,0.6,2,0.9c13,1.1,26.9,2.5,40.1,4.2
		c0.7,0.1,1.3,0.4,1.8,0.9c1,1,1.3,2.7,0.3,4c3.1,0.6,6.1,1.3,8.8,2c0.7-1,1.4-2,2-3.1c0.6-1.1,1.9-1.7,3.1-1.5c0,0,0,0,0.1,0
		c0.7,0.1,1.2,0.4,1.7,0.8c0.9,0.9,1.2,2.4,0.5,3.7c-0.3,0.6-0.7,1.2-1.1,1.8c4.6,1.4,8.3,3,10.3,4.9c1.2-2,2.2-4.1,3.2-6.2
		c0.2-0.4,0.4-0.7,0.6-0.9c0.7-0.7,1.8-1,2.8-0.8c0,0,0,0,0.1,0c0.6,0.1,1.1,0.4,1.5,0.8c0.8,0.8,1.2,2.1,0.6,3.3
		c-3,6.9-7.3,13.3-12.6,18.7c0.5,3,4.2,4.3,7.2,4.8c6-6.4,10.8-13.9,14-22.1c0.6-1.5,2.2-2.2,3.7-1.8c0,0,0,0,0.1,0
		c0.5,0.2,0.9,0.4,1.2,0.7c0.8,0.8,1.1,2.1,0.7,3.3c-2.9,7.2-6.9,14-11.8,20.1l12.1-0.2c-1.1-0.2-2.3-0.6-3.1-1.4
		c-1.6-1.6-1.2-4.9,6.2-11.6c7.2-6.5,7.5-9.9,5.8-11.6c-1.9-1.9-6.3-1.8-6.8-1.8h0l-5.8-2.3c0,0-37.6-14.5-130.1-17.6
		c-0.2,0-0.3,0-0.5,0c-5-0.2-10.2-0.3-15.5-0.4c-1-0.1-2-0.2-3.1-0.1c-5.9,0.4-8.7,0.1-9.4-0.5c-2.4-2.4,23.7-10.5,32.2-14.4
		c10.9-5.1,29.1-17.7,57-25.3c3.2-0.9,6.6-1.4,10.1-1.7h-31c-18.2,5.1-33.8,6.8-47.4,6.1c-4,1.8-8.8,4-14,6.4
		c7.4,1.4,13.8,2.3,18.4,2.9c0.5,0.1,0.9,0.3,1.2,0.6c0.9,0.9,0.8,2.7-0.6,3.4c-38.9,18.6-41,16.1-70.8,17.9
		c-1.7,0.9-3.4,1.7-5.1,2.6C349,247.8,347.7,249.8,352.6,249.8z"/>
	
		<linearGradient id="SVGID_20_" gradientUnits="userSpaceOnUse" x1="243.2986" y1="191.5155" x2="243.2986" y2="321.0648" gradientTransform="matrix(0 1 -1 0 801.3597 6.0268)">
		<stop  offset="0" style="stop-color:#686868"/>
		<stop  offset="0.867" style="stop-color:#000000"/>
	</linearGradient>
	<path class="st19" d="M492.4,225.5c-4.3,1.2-8.3,2.5-12.1,3.8l1.3,0.2c11,1.6,21.6,4.7,31.7,9.2l9.5,4.3c27,4.7,39.5,9.4,40.4,9.8
		c0,0,0,0,0,0l3.3,1.3c4.5,0.4,10.5,1.9,15,6.5c3.7,3.7,5.8,8.7,5.7,14c5.8-2.7,14.4-6.6,22.6-9.7c-7.7-3.5-16.1-7.6-25.3-12.2
		c-17.8-8.9-32.7-16.8-36.2-18.6C538.3,229.8,510.1,220.7,492.4,225.5z"/>
</g>
<g>
	
		<linearGradient id="SVGID_21_" gradientUnits="userSpaceOnUse" x1="280.6867" y1="337.5959" x2="280.6867" y2="259.2385" gradientTransform="matrix(0 1 -1 0 801.3597 6.0268)">
		<stop  offset="0" style="stop-color:#686868"/>
		<stop  offset="0.4477" style="stop-color:#000000"/>
	</linearGradient>
	<path class="st20" d="M521.1,279.9c-12.4,12.4-30.4,16-46.1,10.7c-2,1.5-7.3,5.5-11.3,7.4c21.1,10.9,47.7,7.5,65.3-10.1
		c5-5,9-10.9,11.8-17.3c0.2-0.4,0.4-0.7,0.6-0.9c0.2-0.2,0.4-0.3,0.6-0.5h-13.3c-0.1,0.3-0.2,0.6-0.3,0.9
		C526.5,273.7,524,277,521.1,279.9z"/>
	
		<linearGradient id="SVGID_22_" gradientUnits="userSpaceOnUse" x1="269.8162" y1="336.7949" x2="269.8162" y2="275.8026" gradientTransform="matrix(0 1 -1 0 801.3597 6.0268)">
		<stop  offset="0" style="stop-color:#686868"/>
		<stop  offset="0.4477" style="stop-color:#000000"/>
	</linearGradient>
	<path class="st21" d="M512.6,264.9c0.6,1.1,0.6,2.4-0.3,3.5c-0.4,0.5-0.8,0.9-1.3,1.4c-9.8,9.8-24.8,11.5-36.4,4.9l-9.9,3
		c15.2,12.8,37.9,12.1,52.2-2.2c2.5-2.5,4.7-5.4,6.4-8.5c0.5-0.9,1.4-1.4,2.4-1.5l0,0L512.6,264.9z"/>
	
		<linearGradient id="SVGID_23_" gradientUnits="userSpaceOnUse" x1="289.5438" y1="337.541" x2="289.5438" y2="244.344" gradientTransform="matrix(0 1 -1 0 801.3597 6.0268)">
		<stop  offset="0" style="stop-color:#686868"/>
		<stop  offset="0.4477" style="stop-color:#000000"/>
	</linearGradient>
	<path class="st22" d="M546.5,273c-3.1,7.1-7.5,13.7-13.1,19.2c-15.8,15.8-38,21.2-58.2,16.5c-2.7,1.6-7.4,4.2-11.4,5.4
		c25.5,10,55.3,4.5,75.7-15.9c6.8-6.8,12.2-15,15.7-23.9c0.3-0.8,1-1.5,1.8-1.7l-10.3-0.6C546.7,272.4,546.6,272.7,546.5,273z"/>
</g>
<g>
	
		<linearGradient id="SVGID_24_" gradientUnits="userSpaceOnUse" x1="286.9061" y1="310.4647" x2="286.9016" y2="310.2283" gradientTransform="matrix(0 1 -1 0 801.3597 6.0268)">
		<stop  offset="0" style="stop-color:#686868"/>
		<stop  offset="0.4477" style="stop-color:#000000"/>
	</linearGradient>
	<path class="st23" d="M490.9,292.9l0.2,0l0,0C491.1,292.9,491,292.9,490.9,292.9z"/>
	
		<linearGradient id="SVGID_25_" gradientUnits="userSpaceOnUse" x1="295.5679" y1="423.4742" x2="294.582" y2="370.5926" gradientTransform="matrix(0 1 -1 0 801.3597 6.0268)">
		<stop  offset="0" style="stop-color:#686868"/>
		<stop  offset="0.4477" style="stop-color:#000000"/>
	</linearGradient>
	<path class="st24" d="M384,299.9c-1.1,1.2-1,3,0.1,4.2l0,0l12.6,12.3c0.7,0.6,1.6,1,2.5,0.8c6.5-0.8,22.9-3.5,35.2-9.6
		c1.9-0.9,2.2-3.4,0.8-4.9c0,0,0,0,0,0l-0.2-0.2c-4.9-4.9-9-10.3-12.4-16.2c-0.1-0.2-0.3-0.5-0.5-0.6c-0.8-0.8-2-1.1-3.1-0.7
		c-6.2,2.1-12.6,3.3-19.1,3.8l-5.5,0.4c-0.8,0.1-1.5,0.4-2.1,1L384,299.9z"/>
	
		<linearGradient id="SVGID_26_" gradientUnits="userSpaceOnUse" x1="327.2994" y1="421.8666" x2="325.7977" y2="341.3209" gradientTransform="matrix(0 1 -1 0 801.3597 6.0268)">
		<stop  offset="0" style="stop-color:#686868"/>
		<stop  offset="0.4477" style="stop-color:#000000"/>
	</linearGradient>
	<path class="st25" d="M388.7,347.4c0.4,0.4,0.9,0.7,1.5,0.8l29.5,6.2c0.7,0.1,1.5,0,2.1-0.3c7-4,31.1-17.7,44.8-27.2
		c1.6-1.1,1.7-3.4,0.4-4.6c-0.3-0.3-0.7-0.6-1.2-0.7c-7.3-2.4-14.4-5.9-20.9-10.6c-1-0.7-2.3-0.8-3.4-0.2c-7.6,4.6-17,7.7-25.3,9.7
		c1.4,1.6,2.9,4.3-0.1,6c-3.6,2.1-21,13-27.9,17.3l-0.1,0.2C387.5,345.1,387.8,346.5,388.7,347.4z"/>
	
		<linearGradient id="SVGID_27_" gradientUnits="userSpaceOnUse" x1="265.2533" y1="423.4562" x2="264.5795" y2="387.3175" gradientTransform="matrix(0 1 -1 0 801.3597 6.0268)">
		<stop  offset="0" style="stop-color:#686868"/>
		<stop  offset="0.4477" style="stop-color:#000000"/>
	</linearGradient>
	<path class="st26" d="M417.6,275.6c-1.5-3.8-2.6-7.8-3.5-11.8c-0.1-0.6-0.4-1.2-0.8-1.6c-0.5-0.5-1.1-0.8-1.8-0.9l-19.2-2.3
		c-0.9-0.1-1.9,0.2-2.5,0.9l-7.4,7.6c-1.1,1.2-1.1,3,0,4.2l9.7,10.3l0.1,0.1c0.6,0.6,1.5,0.9,2.4,0.9l5-0.4
		c5.5-0.4,10.9-1.5,16.1-3.1C417.3,279.1,418.2,277.2,417.6,275.6z"/>
	
		<linearGradient id="SVGID_28_" gradientUnits="userSpaceOnUse" x1="262.6492" y1="352.4325" x2="262.0586" y2="320.7581" gradientTransform="matrix(0 1 -1 0 801.3597 6.0268)">
		<stop  offset="0" style="stop-color:#686868"/>
		<stop  offset="0.4477" style="stop-color:#000000"/>
	</linearGradient>
	<path class="st27" d="M477.3,259.8l-11.9-1.5l-13.5,0.3c0.3,0.3,0.5,0.7,0.6,1.1c1.8,5.9,5.1,11.4,9.6,15.8
		c0.6,0.6,1.3,1.2,1.9,1.8l19.9,0.8c-5.9-1.1-11.5-3.9-16.1-8.4c-1.9-1.9-3.6-4.1-4.9-6.4c-1.2-2.1,0.5-4.7,2.9-4.5
		C469.6,259.1,473.4,259.4,477.3,259.8z"/>
	
		<linearGradient id="SVGID_29_" gradientUnits="userSpaceOnUse" x1="277.6133" y1="388.795" x2="276.4633" y2="327.1132" gradientTransform="matrix(0 1 -1 0 801.3597 6.0268)">
		<stop  offset="0" style="stop-color:#686868"/>
		<stop  offset="0.4477" style="stop-color:#000000"/>
	</linearGradient>
	<path class="st28" d="M419.4,258.1c0,0.1,0,0.2,0,0.3c0.9,6.2,2.6,12.3,5.1,18l0.5-0.2l1.9,5c0.1,0.1,0.1,0.3,0.2,0.4
		c3.3,6.1,7.4,11.6,12.3,16.5c1.8,1.8,3.8,3.6,5.8,5.2c3,2.4,6.2,4.5,9.4,6.4H481c-13-1.8-25.5-7.7-35.5-17.6
		c-8.9-8.9-14.8-20.1-17.2-32.3c0-0.3-0.1-0.5-0.1-0.8c0-0.7,0.4-1.4,0.9-1.9c0.6-0.6,1.4-0.9,2.3-0.9c0,0,0,0,0.1,0c0,0,0,0,0.1,0
		c-0.5-0.2-1.2-0.4-1.8-0.4c-1.2,0-7.4,0.1-11.5,0.2c0.1,0.1,0.2,0.1,0.2,0.2C419,256.8,419.3,257.4,419.4,258.1z"/>
	
		<linearGradient id="SVGID_30_" gradientUnits="userSpaceOnUse" x1="269.5515" y1="372.7046" x2="268.5847" y2="320.8501" gradientTransform="matrix(0 1 -1 0 801.3597 6.0268)">
		<stop  offset="0" style="stop-color:#686868"/>
		<stop  offset="0.4477" style="stop-color:#000000"/>
	</linearGradient>
	<path class="st29" d="M449.9,257.5c-0.2-0.1-0.4-0.2-0.6-0.2c-0.9,0-13.3-0.1-15.7-0.2c0,0,0,0,0,0c0.4,0.4,0.7,0.9,0.8,1.5
		c2.1,10.9,7.4,21,15.4,29.1c1.5,1.5,3.2,3,4.8,4.3l31.4,0.7c-10.3-0.8-20.4-5.1-28.3-13c-5.2-5.2-9-11.5-11.1-18.4
		C446,259.4,447.7,257.4,449.9,257.5C449.8,257.5,449.9,257.5,449.9,257.5C449.9,257.5,449.9,257.5,449.9,257.5z"/>
</g>
<g>
	
		<linearGradient id="SVGID_31_" gradientUnits="userSpaceOnUse" x1="104.1173" y1="371.2359" x2="104.1173" y2="399.4978" gradientTransform="matrix(0 1 -1 0 801.3597 6.0268)">
		<stop  offset="0" style="stop-color:#686868"/>
		<stop  offset="0.867" style="stop-color:#000000"/>
	</linearGradient>
	<path class="st30" d="M426.1,98.5c0.1-3.5-2-6.2-3.3-7.5c-2-2-4.5-3.4-7.1-3.9l-0.3,0c-1-0.2-2-0.3-3.1-0.2c-0.2,0-0.6,0.1-1.3,0.2
		c-4,1.1-9.5,5.7-9.2,12.1c0.2,5.2,3.7,11.3,10.2,17.8c0.3,0.3,0.6,0.6,0.9,0.8c6.6,6.3,12.1,11.4,17.2,15.5
		c-5.2-10.6-6.8-22.1-4.2-33.4C426,99.5,426.1,99,426.1,98.5z"/>
	
		<linearGradient id="SVGID_32_" gradientUnits="userSpaceOnUse" x1="109.7704" y1="427.5225" x2="109.7704" y2="437.9567" gradientTransform="matrix(0 1 -1 0 801.3597 6.0268)">
		<stop  offset="0" style="stop-color:#686868"/>
		<stop  offset="0.867" style="stop-color:#000000"/>
	</linearGradient>
	<path class="st31" d="M366.6,107.5c-0.5-1.3-0.8-1.9-1-2.1c-0.6,0.5-1.2,1.1-1.6,1.5c0,0-0.1,0.1-0.1,0.2c0,0,0,0,0,0.1
		c-0.7,1.4-1.1,5,1.4,9.5c1,1.9,2.4,3.7,4.2,5.5c0.2,0.2,0.3,0.3,0.5,0.5c1.3,1.2,2.6,2.5,3.8,3.6c-0.3-0.5-0.6-1-0.8-1.3
		c-2.8-4.8-4.2-9.6-5.2-13.5C367.4,110,367,108.6,366.6,107.5z"/>
	
		<linearGradient id="SVGID_33_" gradientUnits="userSpaceOnUse" x1="111.4476" y1="336.2344" x2="111.4476" y2="464.0009" gradientTransform="matrix(0 1 -1 0 801.3597 6.0268)">
		<stop  offset="0" style="stop-color:#686868"/>
		<stop  offset="0.867" style="stop-color:#000000"/>
	</linearGradient>
	<path class="st32" d="M360.1,133c-0.2-0.2-0.5-0.4-0.7-0.7c-2.8-2.8-5-5.8-6.6-8.7c-4.6-8.4-4.6-16.8-1.8-22.7
		c0.8-1.8,1.9-3.3,3.2-4.5c2.2-2,4.6-4.3,7.7-5.4c3-1,6.6-0.9,11,1.8c1.1,0.7,2.1,1.4,2.9,2.3c2.2,2.2,3.5,4.9,4.5,7.8
		c1.7,4.8,2.4,10.2,5.1,14.8c2.8,4.7,9.5,14.6,18.9,24c3.2,3.2,6.6,6.3,10.4,9.1c6.9,5.2,16.3,9.5,24.4,12.6l26-0.8
		c-26.7-3.1-39.1-12.1-62.2-34.4c-0.4-0.3-0.7-0.7-1-1c-10-10-14-19.3-14.4-27.3c-0.6-13.8,9.8-23.7,19.6-26.5
		c1.5-0.4,2.9-0.7,4.3-0.8c2.3-0.1,4.6,0,6.9,0.5h0c0.6,0.1,1.1,0.3,1.6,0.4c-0.1-0.2-0.1-0.3-0.1-0.3s-7.3-1.9-11.4-1.6
		c-4.1,0.3-50.6,0-50.6,0s-32.6,14.9-15.5,43.4c4.3,7.2,11.4,13.8,19.6,19.8C361.3,134.1,360.7,133.5,360.1,133z"/>
</g>
<g>
	
		<linearGradient id="SVGID_34_" gradientUnits="userSpaceOnUse" x1="149.2715" y1="439.9279" x2="149.2715" y2="471.0927" gradientTransform="matrix(0 1 -1 0 801.3597 6.0268)">
		<stop  offset="0" style="stop-color:#686868"/>
		<stop  offset="0.867" style="stop-color:#000000"/>
	</linearGradient>
	<path class="st33" d="M353.2,158.6c-4.3-3.7-10.5-8.9-16.1-11.6c-3.5-1.7-5.4-1.9-6.8-1.6c11.3,8.5,23.2,16,31.2,20
		C358.7,163.2,355.9,160.9,353.2,158.6z"/>
	
		<linearGradient id="SVGID_35_" gradientUnits="userSpaceOnUse" x1="124.7174" y1="364.8519" x2="124.7174" y2="502.2244" gradientTransform="matrix(0 1 -1 0 801.3597 6.0268)">
		<stop  offset="0" style="stop-color:#686868"/>
		<stop  offset="0.867" style="stop-color:#000000"/>
	</linearGradient>
	<path class="st34" d="M319.2,132.7c8-5.4,16.4-4.7,25-0.5c6.4,3.1,13,8.1,19.8,14c13.9,12.1,27.1,19.7,38.8,24.6l33.8,0.4
		c-7.1-0.7-14-2.6-21.4-4.4c-9.3-2.3-15.1-4-30-13.2c-9.1-5.6-16.5-12.5-25-20.7c-0.2-0.2-0.5-0.4-0.7-0.7c-2.8-2.8-5-5.8-6.6-8.7
		c-4.6-8.4-4.6-16.8-1.8-22.7c0.8-1.8,1.9-3.3,3.2-4.5c2.2-2,4.6-4.3,7.7-5.4c1.6-0.6,3.3-0.8,5.3-0.5c-0.1-0.2-0.1-0.3-0.1-0.3
		h-51.6c0,0-18,4.1-16.1,21.2c0.7,6,7.9,14.4,17.6,23C317.6,133.8,318.4,133.2,319.2,132.7z"/>
	
		<linearGradient id="SVGID_36_" gradientUnits="userSpaceOnUse" x1="109.7704" y1="427.5225" x2="109.7704" y2="437.9567" gradientTransform="matrix(0 1 -1 0 801.3597 6.0268)">
		<stop  offset="0" style="stop-color:#686868"/>
		<stop  offset="0.867" style="stop-color:#000000"/>
	</linearGradient>
	<path class="st35" d="M366.6,107.5c-0.5-1.3-0.8-1.9-1-2.1c-0.6,0.5-1.2,1.1-1.6,1.5c0,0-0.1,0.1-0.1,0.2c0,0,0,0,0,0.1
		c-0.7,1.4-1.1,5,1.4,9.5c1,1.9,2.4,3.7,4.2,5.5c0.2,0.2,0.3,0.3,0.5,0.5c1.3,1.2,2.6,2.5,3.8,3.6c-0.3-0.5-0.6-1-0.8-1.3
		c-2.8-4.8-4.2-9.6-5.2-13.5C367.4,110,367,108.6,366.6,107.5z"/>
</g>
<g>
	
		<linearGradient id="SVGID_37_" gradientUnits="userSpaceOnUse" x1="168.6257" y1="300.1868" x2="168.6257" y2="388.0287" gradientTransform="matrix(0 1 -1 0 801.3597 6.0268)">
		<stop  offset="0" style="stop-color:#686868"/>
		<stop  offset="0.867" style="stop-color:#000000"/>
	</linearGradient>
	<path class="st36" d="M499.4,171.2l-50.9-1.2c-0.4,0.6-1,1.1-1.9,1.2c-6.1,0.7-11.8,0.1-17.6-1.1c-2.8,1-8.9,3.1-15.7,4.5
		c8.3,2.6,15.6,3.8,21.8,4.5c14.1,1.6,36.3-7.5,66.1-7.5L499.4,171.2z"/>
	
		<linearGradient id="SVGID_38_" gradientUnits="userSpaceOnUse" x1="207.9259" y1="367.0783" x2="207.9259" y2="368.5655" gradientTransform="matrix(0 1 -1 0 801.3597 6.0268)">
		<stop  offset="0" style="stop-color:#686868"/>
		<stop  offset="0.867" style="stop-color:#000000"/>
	</linearGradient>
	<path class="st37" d="M432.8,214l1.3,0c0,0,0.1,0,0.2-0.1C433.8,213.9,433.3,214,432.8,214z"/>
	
		<linearGradient id="SVGID_39_" gradientUnits="userSpaceOnUse" x1="212.4746" y1="186.3352" x2="212.4746" y2="317.7462" gradientTransform="matrix(0 1 -1 0 801.3597 6.0268)">
		<stop  offset="0" style="stop-color:#686868"/>
		<stop  offset="0.867" style="stop-color:#000000"/>
	</linearGradient>
	<path class="st38" d="M613.7,235.4c-16.1-8.4-31.1-15.3-45.1-20.7c-33.3-12.8-61.1-16.9-85-11.6c4.2,1.1,10.2,2.7,16.9,4.8
		c24.9-1.2,52.6,10.4,54.8,11.3c0.1,0,0.2,0.1,0.2,0.1c1.4,0.8,15.3,8.2,32.7,16.9l26.7,0l-12-11.6L613.7,235.4z"/>
	
		<linearGradient id="SVGID_40_" gradientUnits="userSpaceOnUse" x1="165.5041" y1="344.7033" x2="165.5041" y2="476.4398" gradientTransform="matrix(0 1 -1 0 801.3597 6.0268)">
		<stop  offset="0" style="stop-color:#686868"/>
		<stop  offset="0.867" style="stop-color:#000000"/>
	</linearGradient>
	<path class="st39" d="M325.9,148.5c-0.5,0.5-0.8,0.9-0.9,1.1c0.2,0.5,0.6,1.5,1.8,3.1c0.8,1.1,1.8,2.2,3,3.4
		c5.4,5.4,13.9,11.3,25.4,17.6c2,1.1,4,2.3,6.1,3.4c13,7.3,26.4,14.8,42.7,18.4c15.9,3.5,33.2,2.9,52.7-1.8
		c-8.5,1.5-16.1,2.5-23.4,1.7c-29.2-3.4-55.4-15.4-80.1-36.9c-4.3-3.7-10.5-8.9-16.1-11.6c-5.6-2.7-7.3-1.6-8.7-0.6
		C327.6,146.9,326.7,147.6,325.9,148.5z"/>
	
		<linearGradient id="SVGID_41_" gradientUnits="userSpaceOnUse" x1="165.523" y1="379.253" x2="165.523" y2="542.8578" gradientTransform="matrix(0 1 -1 0 801.3597 6.0268)">
		<stop  offset="0" style="stop-color:#686868"/>
		<stop  offset="0.867" style="stop-color:#000000"/>
	</linearGradient>
	<path class="st40" d="M299.1,177.2c15.6,2.5,32.9,11.4,50.3,22.7c10.1,6.6,22.1,11.4,33.6,15l39.1-0.7
		c-32.9-0.8-54.5-14.9-74.8-26.1c-11.8-6.5-22.1-13.4-29.1-20.4c-1.7-1.7-3.2-3.4-4.5-5.1c-5.6-7.3-7.1-14.7-2.6-21.8
		c0.8-1.3,1.8-2.5,3-3.7c1.7-1.7,3.4-3.2,5.1-4.3c5.3-3.6,10.6-4.5,16.1-3.5c-2.2-0.4-7.1-1-18.2-1c-17.3,0-38.9,0-38.9,0
		s-18.5,5.7-19.7,20.4c-0.7,8.1,9.7,19.7,21.4,29.3C285.9,176.3,292.4,176.1,299.1,177.2z"/>
</g>
<g>
	
		<linearGradient id="SVGID_42_" gradientUnits="userSpaceOnUse" x1="205.0816" y1="440.8567" x2="205.0816" y2="524.0886" gradientTransform="matrix(0 1 -1 0 801.3597 6.0268)">
		<stop  offset="0" style="stop-color:#686868"/>
		<stop  offset="0.867" style="stop-color:#000000"/>
	</linearGradient>
	<path class="st41" d="M296.3,195.4c-9.5-1.5-14.3,1-17,3.1c0,0-0.1,0-0.1,0.1c-0.6,0.5-1.3,1-1.9,1.6c0.2,0.3,0.5,0.7,0.8,1.2
		c0.5,0.7,1.1,1.3,1.8,2c9.8,9.8,34.2,20.9,66.8,23.8c5.3-0.4,9.8-0.6,13.7-0.8c-7.4-3.1-14.5-6.7-21.2-11
		C321.4,203.7,307.3,197.2,296.3,195.4z"/>
	
		<linearGradient id="SVGID_43_" gradientUnits="userSpaceOnUse" x1="203.0721" y1="474.5513" x2="203.0721" y2="592.4161" gradientTransform="matrix(0 1 -1 0 801.3597 6.0268)">
		<stop  offset="0" style="stop-color:#686868"/>
		<stop  offset="0.867" style="stop-color:#000000"/>
	</linearGradient>
	<path class="st42" d="M227.5,224.4c7.6-5,16.4-4.3,25.5-1.1c9.1,3.2,18.5,8.9,27.4,13.7c3.4,1.8,8.2,4,13.3,6.1h33.1
		c-26.9-5.1-48.6-15.3-59.9-26.6c-1.2-1.2-2.3-2.5-3.3-3.7c-5.8-7.4-7.1-15.1-2.5-21.9c0.8-1.1,1.7-2.2,2.7-3.3
		c1.4-1.4,2.8-2.6,4.3-3.7c8.3-6.3,18-8.1,28.6-6.9l-0.4-0.3l-34.7-0.9c0,0-58.4-6.6-52.2,25.2c2,10.5,8.5,18.6,16.3,24.8
		C226.3,225.2,226.9,224.8,227.5,224.4z"/>
</g>
<g>
	
		<linearGradient id="SVGID_44_" gradientUnits="userSpaceOnUse" x1="243.4683" y1="518.8902" x2="243.4683" y2="635.2383" gradientTransform="matrix(0 1 -1 0 801.3597 6.0268)">
		<stop  offset="0" style="stop-color:#686868"/>
		<stop  offset="0.867" style="stop-color:#000000"/>
	</linearGradient>
	<path class="st43" d="M209,267.4c7.4,3.4,15.1,8.8,24.8,12.3c17.9,0,37.3,0,46.9,0c0.6,0,1.2,0,1.9,0c-2.2,0-4.4-0.1-6.6-0.2
		c-22.9-1-40.6-8.6-50.4-18.4c-1.8-1.8-3.3-3.6-4.5-5.5c-5.1-7.7-5.7-16.3-0.6-23.8c1-1.6,2.3-3.1,3.8-4.5c1.1-1.1,2.2-2,3.4-2.7
		c3-2,6.2-3.1,9.5-3.5l-45.6-1.6c0,0-19.5-0.9-24.7,18c-3,11.1,7,23.6,15.9,32.1C192.5,262.3,200.5,263.5,209,267.4z"/>
	
		<linearGradient id="SVGID_45_" gradientUnits="userSpaceOnUse" x1="215.2499" y1="555.8139" x2="215.2499" y2="556.1797" gradientTransform="matrix(0 1 -1 0 801.3597 6.0268)">
		<stop  offset="0" style="stop-color:#686868"/>
		<stop  offset="0.867" style="stop-color:#000000"/>
	</linearGradient>
	<path class="st44" d="M245.5,221.3l-0.3,0C245.3,221.3,245.4,221.3,245.5,221.3C245.5,221.3,245.5,221.3,245.5,221.3z"/>
	
		<linearGradient id="SVGID_46_" gradientUnits="userSpaceOnUse" x1="244.176" y1="517.3842" x2="244.176" y2="565.1486" gradientTransform="matrix(0 1 -1 0 801.3597 6.0268)">
		<stop  offset="0" style="stop-color:#686868"/>
		<stop  offset="0.867" style="stop-color:#000000"/>
	</linearGradient>
	<path class="st45" d="M238.2,240.7c-0.1,0-0.3,0.2-0.7,0.6c-0.5,0.5-0.9,0.9-1,1.2c0,0,0,0,0,0.1c-0.1,0.2-0.2,0.3-0.2,0.3
		c0,0.2,0.2,0.8,0.9,1.9c0.5,0.8,1.2,1.6,2,2.5c5.6,5.6,18.4,11.9,37.4,12.7c2.5,0.1,5,0.2,7.4,0.2c-5-2.1-9.5-4.2-12.9-6.1
		c-1.7-1-3.5-1.9-5.3-2.9c-6.6-3.7-13.4-7.4-19.2-9.5c-2-0.7-6.7-2.2-8.3-1C238.2,240.7,238.2,240.7,238.2,240.7z"/>
</g>
<linearGradient id="SVGID_47_" gradientUnits="userSpaceOnUse" x1="295.4744" y1="550.1781" x2="295.4744" y2="682.2842" gradientTransform="matrix(0 1 -1 0 801.3597 6.0268)">
	<stop  offset="0" style="stop-color:#686868"/>
	<stop  offset="0.867" style="stop-color:#000000"/>
</linearGradient>
<path class="st46" d="M184.6,336.5c3.5,1.1,7,2.1,10.6,3.1c17.4,0.1,42.3,0.2,56,0c-4.2-0.1-8.3-0.3-12.5-0.8
	c-22.7-2.2-44.2-12.7-57-25.5c-3.4-3.4-6.1-6.9-8.2-10.5c-4.6-8.2-5.3-16.7-0.4-24c0.9-1.3,1.9-2.6,3.2-3.8c1.9-1.9,3.8-3.6,5.6-4.9
	c6-4.5,11.3-6,16.3-5.7l0.2-0.4l-45.1-0.5c0,0-30.9-3.8-34.2,25.2c-2.1,18.1,20.5,33.4,37.8,42.4
	C166.3,331.7,175.7,333.7,184.6,336.5z"/>
<linearGradient id="SVGID_48_" gradientUnits="userSpaceOnUse" x1="384.1352" y1="432.1601" x2="384.1352" y2="564.168" gradientTransform="matrix(0 1 -1 0 801.3597 6.0268)">
	<stop  offset="0" style="stop-color:#686868"/>
	<stop  offset="0.867" style="stop-color:#000000"/>
</linearGradient>
<path class="st47" d="M300.3,413.3c27.6-6.8,48.5-31.6,68.8-51.1c0,0,0,0,0.1,0h-22.6c-8.5,10.1-18.1,19.6-27.6,25.4
	c-10.1,6.1-23.8,10-38.6,12.3c-13.4,7.9-28.3,14.7-43.2,17.8C257.6,418.8,278.4,418.7,300.3,413.3z"/>
<g>
	
		<linearGradient id="SVGID_49_" gradientUnits="userSpaceOnUse" x1="658.1149" y1="246.4745" x2="657.5759" y2="246.4359" gradientTransform="matrix(0 1 -1 0 801.3597 6.0268)">
		<stop  offset="0.1117" style="stop-color:#686868"/>
		<stop  offset="0.2101" style="stop-color:#29211E"/>
		<stop  offset="0.3697" style="stop-color:#686868"/>
		<stop  offset="0.5824" style="stop-color:#322B28"/>
		<stop  offset="0.885" style="stop-color:#000000"/>
	</linearGradient>
	<path class="st48" d="M554.6,664l0.6-0.4l-0.2,0C554.9,663.8,554.8,663.9,554.6,664z"/>
	
		<linearGradient id="SVGID_50_" gradientUnits="userSpaceOnUse" x1="661.4987" y1="265.738" x2="639.0089" y2="264.1282" gradientTransform="matrix(0 1 -1 0 801.3597 6.0268)">
		<stop  offset="0.1117" style="stop-color:#686868"/>
		<stop  offset="0.2101" style="stop-color:#29211E"/>
		<stop  offset="0.3697" style="stop-color:#686868"/>
		<stop  offset="0.5824" style="stop-color:#322B28"/>
		<stop  offset="0.885" style="stop-color:#000000"/>
	</linearGradient>
	<path class="st49" d="M507,659c16.6,10.6,47.3-1.9,57.5-6.5c2-1.3,4-2.6,5.4-3.7h-50c0,0-10.6,6.6-16.3,7.7
		C504.7,657.5,505.9,658.3,507,659z M566.9,650.6c-0.2,0.2-0.4,0.3-0.6,0.5l0.4-0.4C566.9,650.7,566.9,650.6,566.9,650.6z"/>
	
		<linearGradient id="SVGID_51_" gradientUnits="userSpaceOnUse" x1="611.7631" y1="407.2007" x2="562.0878" y2="403.645" gradientTransform="matrix(0 1 -1 0 801.3597 6.0268)">
		<stop  offset="0.1117" style="stop-color:#686868"/>
		<stop  offset="0.2101" style="stop-color:#29211E"/>
		<stop  offset="0.3697" style="stop-color:#686868"/>
		<stop  offset="0.5824" style="stop-color:#322B28"/>
		<stop  offset="0.885" style="stop-color:#000000"/>
	</linearGradient>
	<path class="st50" d="M403.9,605.8c0-0.1,0-0.1,0.1-0.2l0.1-0.4l0.5-2.5l0.7-3.3l1.4-6.6l2.8-13.2c0.5-2.5,1-4.9,1.5-7.4h-0.2
		c-0.5,2.4-0.9,4.8-1.4,7.2l-2.7,13.1l-1.4,6.6l-0.7,3.3l-0.5,2.4l-0.1,0.4c0,0.1,0,0.2-0.1,0.2c-0.5,2.1-2.2,3.9-4.2,4.5
		c-0.5,0.2-1,0.2-1.6,0.2c-0.3,0-0.5,0-0.8-0.1l-0.2,0l-0.1,0l-0.2,0L396,610c-2.1-0.4-4.2-0.8-6.3-1.2c-2.8-0.6-5.6-1.2-8.4-1.9
		c0,0.1,0,0.2,0,0.3c2.7,0.6,5.4,1.2,8.1,1.8c2.1,0.4,4.3,0.8,6.5,1.2l0.8,0.1l0.2,0l0.1,0l0.2,0c0.3,0.1,0.5,0,0.8,0.1
		c0.5,0,1.1-0.1,1.6-0.2C401.7,609.7,403.4,607.9,403.9,605.8z"/>
	
		<linearGradient id="SVGID_52_" gradientUnits="userSpaceOnUse" x1="802.8936" y1="363.6218" x2="552.0581" y2="345.6673" gradientTransform="matrix(0 1 -1 0 801.3597 6.0268)">
		<stop  offset="0.1117" style="stop-color:#686868"/>
		<stop  offset="0.2101" style="stop-color:#29211E"/>
		<stop  offset="0.3697" style="stop-color:#686868"/>
		<stop  offset="0.5824" style="stop-color:#322B28"/>
		<stop  offset="0.885" style="stop-color:#000000"/>
	</linearGradient>
	<path class="st51" d="M419.6,765.6c-10,0.5-20.1-0.8-29.7-3.7c-0.7-0.2-1.2-0.5-1.6-1c-2.1-2.1-0.9-6.4,2.7-6.6
		c7.3-0.3,14.4-2.8,20.4-9.2c0.7-0.8,1.8-1.2,2.9-1.1c-0.6,0-1.2,0-1.8-0.1c0.3-0.4,0.6-0.8,0.9-1.2c0.1-0.2,0.3-0.4,0.4-0.6
		c0.7-1.2,3.2-5.8,4.6-14.2c1.3-7.5,0.1-50.4,2-73.5c0.4-4.4,5.7-6.3,8.8-3.2c0.1,0.1,0.2,0.2,0.3,0.3c5.3,6.1,11.8,13.2,18.7,20.1
		c10.7,10.7,22.4,20.9,32.2,25.8c5,2.6,10.6,3.2,16.4,2.6l-2.4-0.5c0.6-0.6,2.8,0.5,3.7,0.4c11.5-1.6,26.5-10,31.6-12.8L522,687
		c-12.4,6.2-26.2,9.8-37.2,4.2c-19.7-10-44.9-38.8-57.4-54l0,0c0.5-13.9,1.3-27.3,2.4-40c14.2,16.4,54.2,61.9,68,71.2
		c15.3,10.3,50.1-2.3,56.7-4.8l-8.1-1c-12.1,4-24.7,4.7-34.6,3.7c-16.2-1.7-34.6-25.2-34.6-25.2l-46.6-52.7c0.5-5,1-9.9,1.6-14.6
		l-1-1.6h-6.6c-0.7,3.4-1.3,6.7-2,10.1l-2.8,13.3l-1.4,6.6l-0.7,3.3l-0.4,1.7l-0.2,0.8l-0.1,0.4l-0.2,0.6c-0.4,1.7-1.1,3.2-1.9,4.8
		c-0.9,1.5-1.8,2.9-3,4.1c-1.2,1.2-2.5,2.3-4,3.2c-0.7,0.5-1.5,0.8-2.3,1.2c-0.8,0.3-1.6,0.6-2.4,0.9c-1.6,0.5-3.4,0.7-5.1,0.8
		c-0.9,0-1.7,0-2.6-0.1l-0.6-0.1l-0.3,0l-0.2,0l-0.9-0.1c-2.3-0.4-4.6-0.8-6.9-1.3c-2.3-0.5-4.6-1-6.9-1.5
		c-3.1,28.6-7,63.8-9.9,87.6c3.1,0.4,5.9,0.7,8.6,0.8c3.5,0.2,6.5-2.4,6.9-5.8l8.3-70c0.4-3.7,3.8-6.3,7.4-5.8
		c1.5,0.2,2.9,0.9,3.9,1.9c1.4,1.4,2.2,3.4,1.9,5.5l-8.3,70c-1.2,10.4-10.4,18.1-20.9,17.5c-3-0.2-6.2-0.4-9.6-0.9
		c-0.9,7-1.7,11.8-2.2,13.4c-3.2,10.8-14.5,19-24.7,19s-8.1,10.2,7.1,10.7c15.2,0.5,70.3,1.9,70.3,1.9L419.6,765.6z"/>
</g>
<g>
	
		<linearGradient id="SVGID_53_" gradientUnits="userSpaceOnUse" x1="520.9296" y1="210.6091" x2="520.9296" y2="379.4432" gradientTransform="matrix(0 1 -1 0 801.3597 6.0268)">
		<stop  offset="0" style="stop-color:#686868"/>
		<stop  offset="0.4477" style="stop-color:#000000"/>
	</linearGradient>
	<path class="st52" d="M501.9,417.1c-10.7,5.8-17.5,11.7-21,15.1c-1.4,1.4-3.6,1.3-5,0c-0.1-0.1-0.2-0.2-0.3-0.3
		c-0.9-1.2-1.9-2.3-3.1-3.5c-3.5-3.5-8.1-7-13-10.3c-2,1-5.1,2.8-8.8,5.8c0.9,0.8,1.7,1.5,2.5,2.4c0.5,0.5,1,1,1.5,1.6
		c2.1,2.3,4.1,4.7,5.8,7.3c0.9,1.3,1.7,2.6,2.5,4c0.7,1.4,1.5,2.8,2.1,4.3c2.5,5.8,3.9,12.3,3.7,18.8c-0.2,6.5-2.3,12.9-5.7,18.5
		c-0.4,0.7-0.9,1.4-1.4,2l-1.4,2l-1.6,1.8c-0.6,0.6-1,1.2-1.7,1.7c-1.2,1.1-2.3,2.2-3.6,3.1l-1.9,1.4c-0.6,0.5-1.3,0.8-2,1.3l-2,1.2
		l-2,1.1c-1.3,0.7-2.6,1.3-4,2c-1.9,0.9-3.8,1.7-5.8,2.4c0,0.2,0,0.4,0,0.5c-0.6,9.4-1.9,18.5-3.2,27.5c-1.4,9-3,17.9-4.6,26.9
		c-1.7,8.9-3.4,17.8-5.3,26.7l-0.7,3.2l7.8,12.1c0-0.1,0-0.3,0-0.4c6.8,7.8,19.4,22.2,32.3,36.1l9.2,0.9l-40.6-45.9
		c0.6-5.7,1.2-11.2,1.8-16.5l3.9,5.9c0,0,24.6,33.3,46.3,57.8l12.6,1.3l0.1-0.6c-36.2-39.3-51.8-75.9-56.6-88.9
		c-1.1-3.1-1.4-6.5-0.7-9.8l3.2-15.9c0,0,1-9.4,20.5-23.9c19.6-14.5,22.4-42,22.4-42l10.1-10.9c23.5-24.3,50.7-25.3,50.7-25.3
		s19.9-1.3,45.7-1.5l0-0.7H501.9z"/>
	
		<linearGradient id="SVGID_54_" gradientUnits="userSpaceOnUse" x1="623.9152" y1="248.9748" x2="623.9152" y2="296.4267" gradientTransform="matrix(0 1 -1 0 801.3597 6.0268)">
		<stop  offset="0" style="stop-color:#686868"/>
		<stop  offset="0.4477" style="stop-color:#000000"/>
	</linearGradient>
	<path class="st53" d="M544.5,630.4c-15.5-5.6-30.5-1.8-39.6,1.9h47.5C550.1,632.1,547.5,631.5,544.5,630.4z"/>
	
		<linearGradient id="SVGID_55_" gradientUnits="userSpaceOnUse" x1="481.6265" y1="219.9024" x2="481.6265" y2="248.7939" gradientTransform="matrix(0 1 -1 0 801.3597 6.0268)">
		<stop  offset="0" style="stop-color:#686868"/>
		<stop  offset="0.4477" style="stop-color:#000000"/>
	</linearGradient>
	<path class="st54" d="M581.3,489.8c0,0-14.3-2-28.8-12.8l13.4,17.7c0,0,5.1,6.2,10.9,2.5C582.6,493.6,581.3,489.8,581.3,489.8z"/>
	
		<linearGradient id="SVGID_56_" gradientUnits="userSpaceOnUse" x1="529.5192" y1="379.172" x2="529.5192" y2="389.5702" gradientTransform="matrix(0 1 -1 0 801.3597 6.0268)">
		<stop  offset="0" style="stop-color:#686868"/>
		<stop  offset="0.4477" style="stop-color:#000000"/>
	</linearGradient>
	<path class="st55" d="M421.8,503.6c-0.6,7.6-1.7,15.4-2.8,23.1c-1.3,8.8-2.9,17.6-4.5,26.4c-0.9,4.7-1.8,9.4-2.7,14.2
		c0.1,0.1,0.1,0.3,0.2,0.4c1-4.8,1.9-9.6,2.8-14.5c1.6-8.8,3.2-17.6,4.6-26.4c1.2-7.8,2.3-15.6,2.9-23.2c-1.6,0.2-3.2,0.3-4.7,0.5
		c0,0,0,0.1,0,0.1C418.9,503.9,420.3,503.7,421.8,503.6z"/>
	
		<linearGradient id="SVGID_57_" gradientUnits="userSpaceOnUse" x1="456.5526" y1="342.2236" x2="456.5526" y2="373.4381" gradientTransform="matrix(0 1 -1 0 801.3597 6.0268)">
		<stop  offset="0" style="stop-color:#686868"/>
		<stop  offset="0.4477" style="stop-color:#000000"/>
	</linearGradient>
	<path class="st56" d="M437.7,490.3c1.2-0.6,2.4-1.2,3.6-1.9l1.8-1l1.6-1c0.5-0.4,1.1-0.6,1.6-1l1.5-1.2c0.5-0.4,1-0.8,1.4-1.2
		l1.4-1.3c0.5-0.4,0.9-0.9,1.3-1.4l1.2-1.4l1.1-1.5c0.3-0.5,0.7-1,1-1.6c2.5-4.2,3.9-9,4-13.9c0.1-4.9-1-9.9-3.1-14.4
		c-0.5-1.1-1.2-2.2-1.7-3.4c-0.7-1.1-1.3-2.2-2.1-3.2c-1.5-2.1-3.1-4.1-4.9-6c-0.2-0.2-0.4-0.4-0.7-0.7c-1-1-2-2-3.1-2.9
		c-0.2,0.2-0.3,0.4-0.5,0.6c0.9,0.8,1.8,1.7,2.7,2.6c0.2,0.2,0.4,0.4,0.6,0.7c1.7,1.9,3.3,3.9,4.8,6c0.7,1,1.4,2.1,2,3.2
		c0.6,1.1,1.2,2.2,1.7,3.4c2,4.6,3.1,9.5,3,14.4c-0.1,4.9-1.5,9.7-3.9,13.9c-0.3,0.6-0.6,1-1,1.5l-1,1.5l-1.2,1.4
		c-0.4,0.5-0.8,1-1.2,1.4l-1.3,1.3c-0.4,0.5-0.9,0.8-1.4,1.2l-1.5,1.2c-0.5,0.4-1,0.7-1.6,1l-1.6,1l-1.7,1c-1.2,0.7-2.4,1.3-3.5,1.9
		c-2.4,1.2-4.7,2.2-7.1,2.9c-0.6,0.2-1.3,0.4-1.9,0.5c0.9-0.2,1.7-0.4,2.5-0.7C432.9,492.5,435.3,491.5,437.7,490.3z"/>
</g>
<linearGradient id="SVGID_58_" gradientUnits="userSpaceOnUse" x1="662.2036" y1="404.1891" x2="662.2036" y2="465.9272" gradientTransform="matrix(0 1 -1 0 801.3597 6.0268)">
	<stop  offset="0" style="stop-color:#686868"/>
	<stop  offset="0.867" style="stop-color:#000000"/>
</linearGradient>
<path class="st57" d="M385.5,703.3l8.3-70c0.3-2.2,1.6-4,3.4-5h-42c0,0-10.9-4.4-12.3,7c-1.1,9.1-5.6,47-7.4,61.9
	c4.1,2.2,8.2,4.1,12.2,5.6l14.1,4.1c6.2,1.3,11.9,2,16.8,2.3C382,709.3,385.1,706.7,385.5,703.3z"/>
<linearGradient id="SVGID_59_" gradientUnits="userSpaceOnUse" x1="446.4197" y1="59.9881" x2="446.4197" y2="156.803" gradientTransform="matrix(0 1 -1 0 801.3597 6.0268)">
	<stop  offset="0" style="stop-color:#686868"/>
	<stop  offset="0.4477" style="stop-color:#000000"/>
</linearGradient>
<path class="st58" d="M653.6,428.4c-2.8,1.5-5.9,2.7-9,3.7c27.9,8.7,47.4,44.5,47.4,44.5h49.4c0,0-0.3-1-1.2-2.8
	C713.9,433.3,675.9,427,653.6,428.4z"/>
<g>
	
		<linearGradient id="SVGID_60_" gradientUnits="userSpaceOnUse" x1="279.1491" y1="439.6323" x2="279.1491" y2="530.3884" gradientTransform="matrix(0 1 -1 0 801.3597 6.0268)">
		<stop  offset="0" style="stop-color:#686868"/>
		<stop  offset="0.867" style="stop-color:#000000"/>
	</linearGradient>
	<path class="st59" d="M294.7,290.5c13.6,1.4,53.3-6.4,67-8.8l-46.9-2.1l-43.8,8.5C279.6,289.2,287.6,289.8,294.7,290.5z"/>
	
		<linearGradient id="SVGID_61_" gradientUnits="userSpaceOnUse" x1="307.1109" y1="500.9602" x2="307.1109" y2="571.6746" gradientTransform="matrix(0 1 -1 0 801.3597 6.0268)">
		<stop  offset="0" style="stop-color:#686868"/>
		<stop  offset="0.867" style="stop-color:#000000"/>
	</linearGradient>
	<path class="st60" d="M300.4,311.2c-2.9,0.1-5.5,0-7.8-0.3c-2.5-0.3-5.1-0.5-7.9-0.8c-7.6-0.7-16.1-1.5-25.4-3l-29.6,9.3
		c3.6,0.9,7.3,1.5,10.9,1.9C261.3,320.4,281.2,318,300.4,311.2z"/>
</g>
<linearGradient id="SVGID_62_" gradientUnits="userSpaceOnUse" x1="291.8177" y1="516.2629" x2="291.8177" y2="611.1046" gradientTransform="matrix(0 1 -1 0 801.3597 6.0268)">
	<stop  offset="0" style="stop-color:#686868"/>
	<stop  offset="0.867" style="stop-color:#000000"/>
</linearGradient>
<path class="st61" d="M285.1,310.2c-0.1,0-0.3,0-0.4,0c-15.7-1.4-35.3-3.2-57.2-11c-7.7-2.7-14.3-6.4-19.6-9.3
	c-2.7-1.5-5.2-2.9-7.4-3.9c-2.4-1.1-3.4-1.2-3.6-1.2c-0.2,0.1-1,0.3-2.7,1.6c-1.1,0.8-2.3,1.9-3.5,3.1c-0.3,0.3-0.4,0.5-0.5,0.6
	c0.1,0.4,0.4,1.4,1.1,2.7c1.1,1.9,2.7,4,4.8,6.1c4.4,4.4,10.1,8.3,16.5,11.5C234.3,311.4,265.4,310.8,285.1,310.2z"/>
<g>
	
		<linearGradient id="SVGID_63_" gradientUnits="userSpaceOnUse" x1="509.8879" y1="517.6739" x2="509.8879" y2="623.7333" gradientTransform="matrix(0 1 -1 0 801.3597 6.0268)">
		<stop  offset="0" style="stop-color:#686868"/>
		<stop  offset="0.867" style="stop-color:#000000"/>
	</linearGradient>
	<path class="st62" d="M195.8,534.4c7.1,0,14.7-1,22-1.9l1.9-0.2c9.9-1.2,22.9-5.5,34.8-11.5c12.3-6.2,22.6-13.7,28-20.5
		c0.4-0.5,0.8-1,1.1-1.4c-5.2,0.8-10.7,1.3-16.6,1.3c-8.7,0.1-16.7-0.9-24.4-1.8c-3.2-0.4-6.2-0.7-9.1-1c-4.1,6.3-17.1,20.4-56,32.6
		c0,0,0.1,0.1,0.1,0.1C181,533,187.1,534.4,195.8,534.4z"/>
	
		<linearGradient id="SVGID_64_" gradientUnits="userSpaceOnUse" x1="457.816" y1="473.2957" x2="457.816" y2="565.7454" gradientTransform="matrix(0 1 -1 0 801.3597 6.0268)">
		<stop  offset="0" style="stop-color:#686868"/>
		<stop  offset="0.867" style="stop-color:#000000"/>
	</linearGradient>
	<path class="st63" d="M266.9,476.6c29.7-0.2,48.4-14.4,61.1-24.9c0,0,0.1-0.1,0.1-0.1l-27.8-0.5c-5.8,3.4-11.9,6.1-18.6,7.7
		c-5.3,1.3-10.8,1.9-16.2,2.1c-7,4.4-16.8,9.4-29.8,13C246,474.9,256.3,476.7,266.9,476.6z"/>
</g>
<g>
	
		<linearGradient id="SVGID_65_" gradientUnits="userSpaceOnUse" x1="492.4744" y1="544.7076" x2="492.4744" y2="594.1285" gradientTransform="matrix(0 1 -1 0 801.3597 6.0268)">
		<stop  offset="0" style="stop-color:#686868"/>
		<stop  offset="0.867" style="stop-color:#000000"/>
	</linearGradient>
	<path class="st64" d="M207.2,500l49.4-0.2c-4.8-0.3-9.4-0.9-14-1.4c-10.1-1.2-18.8-2.2-26.6-0.7C213.1,498.3,210.1,499.1,207.2,500
		z"/>
	
		<linearGradient id="SVGID_66_" gradientUnits="userSpaceOnUse" x1="509.5337" y1="564.8937" x2="509.5337" y2="700.557" gradientTransform="matrix(0 1 -1 0 801.3597 6.0268)">
		<stop  offset="0" style="stop-color:#686868"/>
		<stop  offset="0.867" style="stop-color:#000000"/>
	</linearGradient>
	<path class="st65" d="M196,558c-12.5,0.1-24.8-2.1-33.9-10.2c-0.5-0.4-0.9-0.9-1.4-1.3c-7.4-7.4-10.7-18.1-7.5-28.3
		c0.2-0.8,0.5-1.5,0.8-2.2c2.3-5.9,6.1-11,10.4-15.6c12.5-13.3,29.3-22.4,47.3-25.8c8.3-1.6,16.6-1.3,24.8-0.5
		c-8.7-1.1-21.2-2-34.7-1.2c-8.1,0.5-16.2,1-23.6,1.4c-15.1,9.6-27.9,21-39.2,26.8c-9,4.6-17.1,5.7-24.7-0.7
		c-0.3-0.2-0.6-0.5-0.9-0.7c-4.5,6.4-8.8,14.5-12.4,24.8c0,0-5.4,22.5,25,31.6c0,0,8.2,1.9,23.7,2.2c15.5,0.3,48.1,0.3,48.1,0.3
		l-0.6-0.6C196.9,558,196.5,558,196,558z"/>
</g>
<linearGradient id="SVGID_67_" gradientUnits="userSpaceOnUse" x1="453.4502" y1="656.0427" x2="453.4502" y2="780.7973" gradientTransform="matrix(0 1 -1 0 801.3597 6.0268)">
	<stop  offset="0" style="stop-color:#686868"/>
	<stop  offset="0.867" style="stop-color:#000000"/>
</linearGradient>
<path class="st66" d="M133.3,503.5c-0.1,0-0.2,0.1-0.3,0.1c-0.4,0.1-0.7,0.2-1.1,0.3c-0.1,0-0.2,0.1-0.3,0.1
	c-0.4,0.1-0.7,0.2-1.1,0.3c-0.1,0-0.1,0-0.2,0c-1.1,0.2-2.3,0.4-3.4,0.5c-0.2,0-0.3,0-0.5,0c-0.3,0-0.5,0-0.8,0c-0.2,0-0.4,0-0.6,0
	c-0.3,0-0.5,0-0.8-0.1c-0.2,0-0.4-0.1-0.7-0.1c-0.2,0-0.5-0.1-0.7-0.1c-0.3-0.1-0.6-0.1-0.8-0.2c-0.2-0.1-0.5-0.1-0.7-0.2
	c-0.4-0.1-0.7-0.2-1.1-0.4c-0.2-0.1-0.3-0.1-0.5-0.2c-0.3-0.1-0.6-0.2-0.8-0.4c-0.2-0.1-0.4-0.2-0.5-0.3c-0.3-0.1-0.6-0.3-0.8-0.4
	c-0.2-0.1-0.3-0.2-0.5-0.3c-0.3-0.2-0.6-0.4-0.9-0.6c-0.1-0.1-0.3-0.2-0.4-0.3c-0.4-0.3-0.9-0.6-1.3-1c0,0,0,0,0,0
	c-1.1-1-2.3-1.9-3.4-2.9c-0.7-0.6-1.4-1.3-2.1-1.9c-1.4-1.3-2.9-2.7-4.3-4c-0.7-0.7-1.4-1.4-2.1-2.1c-2.7-2.7-5.4-5.6-8-8.4
	l-0.1-0.1c-1.9-2.2-3.8-4.4-5.6-6.7c-0.6-0.7-1.2-1.5-1.8-2.2c-2.3-3-4.4-6-6.4-9c0-0.1-0.1-0.1-0.1-0.2c0,0,0,0,0,0c0,0,0,0,0,0
	c0,0,0,0,0,0c0,0,0-0.1-0.1-0.1c-3.1-4.9-5.6-9.7-7.1-14.2c-0.2-0.4-0.3-0.9-0.4-1.3c-0.7-2.2-1.1-4.4-1.3-6.4v0c0,0,0,0,0,0
	c0,0,0,0,0,0c-0.2-2.1-0.1-4.1,0.4-5.9c0.4-1.8,1.2-3.5,2.3-5.1c3.4-4.6,9.3-8,16.7-10.4c0,0,0,0,0,0c0.9-0.3,1.7-0.6,2.6-0.8
	c0.3-0.1,0.6-0.2,0.9-0.2c0.6-0.2,1.2-0.3,1.9-0.5c0.4-0.1,0.7-0.2,1.1-0.3c0.6-0.1,1.2-0.3,1.8-0.4c0.4-0.1,0.8-0.2,1.2-0.3
	c0.6-0.1,1.2-0.2,1.8-0.4c0.4-0.1,0.8-0.2,1.2-0.2c0.6-0.1,1.3-0.2,1.9-0.3c0.4-0.1,0.8-0.1,1.2-0.2c0.7-0.1,1.4-0.2,2.1-0.3
	c0.3,0,0.7-0.1,1-0.1c0.9-0.1,1.8-0.2,2.8-0.3c0.1,0,0.3,0,0.4-0.1c1.1-0.1,2.2-0.2,3.3-0.4c0.2,0,0.4,0,0.6-0.1
	c0.9-0.1,1.8-0.2,2.7-0.2c0.3,0,0.7-0.1,1-0.1c0.8-0.1,1.6-0.1,2.4-0.2c0.4,0,0.7,0,1.1-0.1c0.8,0,1.6-0.1,2.4-0.1
	c0.4,0,0.7,0,1.1-0.1c0.8,0,1.6-0.1,2.4-0.1c0.3,0,0.7,0,1,0c0.9,0,1.8-0.1,2.7-0.1c0.2,0,0.5,0,0.7,0c3.5-0.1,7-0.1,10.4-0.2
	c0,0,0,0,0,0l0.3-0.1c0,0-53.6-1.4-82.6,1.9S5.3,426.8,30,461s37,41.8,37,41.8s3.8,1.9,20.9,2.4c17.1,0.5,32.8,0.9,32.8,0.9
	s8.7,1.2,13.9-3C134.1,503.2,133.7,503.4,133.3,503.5z"/>
<g>
	
		<linearGradient id="SVGID_68_" gradientUnits="userSpaceOnUse" x1="367.4369" y1="489.0344" x2="367.4369" y2="582.4052" gradientTransform="matrix(0 1 -1 0 801.3597 6.0268)">
		<stop  offset="0" style="stop-color:#686868"/>
		<stop  offset="0.867" style="stop-color:#000000"/>
	</linearGradient>
	<path class="st67" d="M258.5,380.5c21.9-1.4,39.4-5.5,49.3-11.5c1.5-0.9,3-1.9,4.5-3.1c-19.5,4-39.5,5.6-60,4.6
		c-6.6,3-17.3,6.7-33.4,9.6C230.2,381.1,244,381.4,258.5,380.5z"/>
	
		<linearGradient id="SVGID_69_" gradientUnits="userSpaceOnUse" x1="329.4928" y1="434.4847" x2="329.4928" y2="564.04" gradientTransform="matrix(0 1 -1 0 801.3597 6.0268)">
		<stop  offset="0" style="stop-color:#686868"/>
		<stop  offset="0.867" style="stop-color:#000000"/>
	</linearGradient>
	<path class="st68" d="M366.9,323.2l-39.7-1.3c-16.4,8.4-32.8,13.5-49.1,16c-11.4,4-25.2,7.8-40.7,9.8
		C281.7,352.6,325.6,345.4,366.9,323.2z"/>
</g>
<g>
	
		<linearGradient id="SVGID_70_" gradientUnits="userSpaceOnUse" x1="355.5119" y1="557.2904" x2="355.5119" y2="673.5945" gradientTransform="matrix(0 1 -1 0 801.3597 6.0268)">
		<stop  offset="0" style="stop-color:#686868"/>
		<stop  offset="0.867" style="stop-color:#000000"/>
	</linearGradient>
	<path class="st69" d="M127.8,356.9c0.5,0,0.9,0.1,1.4,0.2c29.9,10,78.3,13.8,78.3,13.8l36.6-0.8c-21.4-1.7-43.4-6-65.8-13
		c-11.3-3.5-22.2-5.1-31.7-4.7C139.5,352.7,133.2,354.2,127.8,356.9z"/>
	
		<linearGradient id="SVGID_71_" gradientUnits="userSpaceOnUse" x1="393.6868" y1="574.6019" x2="393.6868" y2="666.8578" gradientTransform="matrix(0 1 -1 0 801.3597 6.0268)">
		<stop  offset="0" style="stop-color:#686868"/>
		<stop  offset="0.867" style="stop-color:#000000"/>
	</linearGradient>
	<path class="st70" d="M200.8,399.7c-14.1-2.3-39.6-4-66.3-1.9c17,2.4,32.2,4.8,32.2,4.8l60.1-0.4
		C216.9,401.7,208,400.8,200.8,399.7z"/>
	
		<linearGradient id="SVGID_72_" gradientUnits="userSpaceOnUse" x1="370.4145" y1="650.5024" x2="370.4145" y2="698.8959" gradientTransform="matrix(0 1 -1 0 801.3597 6.0268)">
		<stop  offset="0" style="stop-color:#686868"/>
		<stop  offset="0.867" style="stop-color:#000000"/>
	</linearGradient>
	<path class="st71" d="M150.9,375.4l-41.9-2.8c-2.4,2.4-4.6,5-6.5,7.7C118.8,377.1,135.5,375.7,150.9,375.4z"/>
	
		<linearGradient id="SVGID_73_" gradientUnits="userSpaceOnUse" x1="363.0682" y1="654.3685" x2="363.0682" y2="779.9818" gradientTransform="matrix(0 1 -1 0 801.3597 6.0268)">
		<stop  offset="0" style="stop-color:#686868"/>
		<stop  offset="0.867" style="stop-color:#000000"/>
	</linearGradient>
	<path class="st72" d="M75,404.8c-1.9-1.9-3.2-4.6-3.3-7.4l0,0c0,0,0,0,0,0c0,0,0,0,0,0c-0.1-1.1,0.1-2.2,0.4-3.3
		c3.9-13.5,11.2-26.3,21.8-36.9c0,0,8.1-8.1,8.1-8.1c2-2,4-3.8,6.2-5.4c11-8.4,23.9-12.2,37.3-12.8c0.5,0,1,0,1.5-0.1
		c-14.7-0.8-43.9-1.8-63.4,0.6c-27.1,3.3-51.7,37-59.8,55.1c-8.1,18,6.6,21.8,6.6,21.8h50.8c0,0,0.4-0.2,1.1-0.7
		C79.5,407.9,76.9,406.7,75,404.8z"/>
</g>
<path class="st73" d="M412.9,117.9c-0.3-0.3-0.6-0.6-0.9-0.8c-6.4-6.4-10-12.6-10.2-17.8c-0.3-6.5,5.2-11,9.2-12.1
	c0.7-0.2,1.1-0.2,1.3-0.2c1-0.1,2,0,3.1,0.2l0.3,0c2.6,0.6,5.2,2,7.1,3.9c1.3,1.3,3.4,4,3.3,7.5c0,0.5-0.1,1-0.2,1.5
	c-2.5,11.3-1,22.8,4.2,33.4C425,129.3,419.5,124.2,412.9,117.9z M490.9,160c-0.2-0.2-0.4-0.4-0.8-0.5c-12.8-5.6-33.3-15.1-37.8-19.6
	c-6.7-6.7-16.2-19.8-12.4-36.6c0.3-1.4,0.5-2.8,0.5-4.1c0.3-7-2.7-13.4-7.5-18.2c-3.9-3.9-9.1-6.8-14.7-7.9l0,0
	c-2.2-0.5-4.6-0.6-6.9-0.5c-1.4,0.1-2.8,0.4-4.3,0.8c-9.8,2.8-20.2,12.7-19.6,26.5c0.3,8,4.4,17.3,14.4,27.3c0.3,0.3,0.7,0.7,1,1
	c29,28,41.2,35.1,86.2,35.8C491.4,164,492.2,161.3,490.9,160z"/>
<path class="st73" d="M366.8,104.5L366.8,104.5"/>
<path class="st73" d="M370,122.6c-0.2-0.1-0.3-0.3-0.5-0.5c-1.8-1.8-3.2-3.6-4.2-5.5c-2.5-4.6-2.1-8.2-1.4-9.5c0,0,0,0,0-0.1
	c0.1-0.2,0.1-0.2,0.1-0.2c0.4-0.4,1-1,1.6-1.5c0.2,0.2,0.5,0.8,1,2.1c0.4,1.1,0.8,2.5,1.2,3.9c1.1,3.9,2.4,8.7,5.2,13.5
	c0.2,0.3,0.5,0.8,0.8,1.3C372.6,125.1,371.3,123.9,370,122.6z M448.2,166.9c-0.3-0.3-0.6-0.5-1-0.6c-9.1-3-23.1-8.4-32.5-15.5
	c-3.8-2.8-7.2-6-10.4-9.1c-9.4-9.4-16.1-19.4-18.9-24c-2.7-4.6-3.5-9.9-5.1-14.8c-1-2.9-2.3-5.6-4.5-7.8c-0.8-0.8-1.8-1.6-2.9-2.3
	c-4.4-2.7-8-2.8-11-1.8c-3.1,1.1-5.5,3.4-7.7,5.4c-1.3,1.2-2.4,2.7-3.2,4.5c-2.8,5.8-2.9,14.2,1.8,22.7c1.6,2.9,3.8,5.9,6.6,8.7
	c0.2,0.2,0.5,0.4,0.7,0.7c8.5,8.2,16,15.1,25,20.7c14.9,9.2,20.7,10.9,30,13.2c10.9,2.7,20.7,5.6,31.5,4.4
	C448.9,170.9,449.5,168.3,448.2,166.9z"/>
<path class="st73" d="M346.8,227.2c-32.6-2.9-57-14-66.8-23.8c-0.7-0.7-1.3-1.4-1.8-2c-0.4-0.5-0.6-0.9-0.8-1.2
	c0.6-0.6,1.3-1.1,1.9-1.6c0,0,0,0,0.1-0.1c2.7-2.1,7.5-4.6,17-3.1c11.1,1.8,25.2,8.3,43.1,19.9c6.6,4.3,13.8,7.9,21.2,11
	C356.6,226.6,352,226.9,346.8,227.2z M425.4,224c-0.3-0.3-0.7-0.5-1.2-0.6c-15-1.8-50.2-7.5-74.8-23.5
	c-17.3-11.3-34.6-20.2-50.3-22.7c-11.5-1.8-22-0.2-31,6.6c-1.5,1.1-2.9,2.3-4.3,3.7c-1.1,1.1-2,2.2-2.7,3.3
	c-4.6,6.9-3.3,14.5,2.5,21.9c1,1.2,2.1,2.5,3.3,3.7c14,14,43.9,26.4,79.8,29.3c37.1-2.9,36.3,1.6,78.2-18.5
	C426.3,226.6,426.4,224.9,425.4,224z"/>
<path class="st73" d="M276.6,259.9c-19-0.8-31.8-7.1-37.4-12.7c-0.8-0.8-1.5-1.6-2-2.5c-0.7-1.1-0.9-1.7-0.9-1.9
	c0-0.1,0.1-0.2,0.2-0.3c0,0,0,0,0-0.1c0.2-0.2,0.5-0.7,1-1.2c0.4-0.4,0.6-0.5,0.7-0.6c0,0,0.1,0,0.1-0.1c1.7-1.1,6.4,0.4,8.3,1
	c5.8,2,12.6,5.8,19.2,9.5c1.8,1,3.6,2,5.3,2.9c3.4,1.8,7.9,4,12.9,6.1C281.6,260.1,279.1,260,276.6,259.9z M374.4,254.6
	c-0.3-0.3-1.2-0.3-2.1-0.1c-3.6,0.7-7.3,1.2-11,1.3c-10.3,0.1-27.6-1.7-45.9-5.6c-9.3-1.9-26.6-8.7-35-13.3
	c-8.8-4.8-18.2-10.5-27.4-13.7c-9.1-3.2-17.9-4-25.5,1.1c-1.2,0.8-2.3,1.7-3.4,2.7c-1.5,1.5-2.8,3-3.8,4.5
	c-5.1,7.5-4.5,16.1,0.6,23.8c1.2,1.9,2.8,3.7,4.5,5.5c9.8,9.8,27.5,17.5,50.4,18.4c47.4,2,80.1-7.6,95.7-20.9
	C374.3,256.1,374.9,255,374.4,254.6z"/>
<path class="st73" d="M240.6,318.4c-16.8-1.6-34.2-9.3-44.5-19.6c-2.1-2.1-3.7-4.2-4.8-6.1c-0.8-1.3-1-2.3-1.1-2.7
	c0.1-0.1,0.2-0.3,0.5-0.6c1.2-1.2,2.4-2.3,3.5-3.1c1.6-1.2,2.5-1.5,2.7-1.6c0.2,0,1.2,0.1,3.6,1.2c2.1,1,4.7,2.4,7.4,3.9
	c5.3,2.9,11.8,6.5,19.6,9.3c21.9,7.8,41.5,9.6,57.2,11c2.8,0.3,5.4,0.5,7.9,0.8c2.3,0.2,4.9,0.3,7.8,0.3
	C281.2,318,261.3,320.4,240.6,318.4z M370.8,283.5c-0.1-0.1-0.2-0.2-0.3-0.3c-1.5-1.3-2.7-2-4.1-2.2c-2.4-0.3-55.5,11.1-71.7,9.4
	c-16.2-1.7-37.2-2.5-60.4-10.7c-9.9-3.5-17.8-9-25.3-12.5c-8.6-3.9-16.8-5.1-27.1,2.6c-1.8,1.4-3.7,3-5.6,4.9
	c-1.2,1.2-2.3,2.5-3.2,3.8c-4.9,7.4-4.2,15.8,0.4,24c2,3.6,4.8,7.1,8.2,10.5c12.8,12.8,34.3,23.3,57,25.5
	c43.5,4.3,87.6-8,131.9-46.7C373.1,289.8,373.2,285.9,370.8,283.5z"/>
<path class="st73" d="M566.9,650.6L566.9,650.6L566.9,650.6z M566.9,650.6c0,0-0.1,0-0.2,0.1l-0.4,0.4
	C566.6,651,566.7,650.8,566.9,650.6L566.9,650.6z"/>
<g>
	<path class="st73" d="M747.4,467.6c-3.4-7.2-7.5-13.8-12.3-19.6c-2-2.4-4-4.7-6.2-6.8c-46-46-136.2-44.5-179.1-38.9
		c-39.8,5.2-61.6,23-68.9,30c-1.4,1.4-3.6,1.3-5,0c-0.1-0.1-0.2-0.2-0.3-0.3c-0.9-1.2-1.9-2.3-3.1-3.5c-12.6-12.6-40.9-26-40.9-26
		c-23.6-11.3-42.9-11.7-50.7-11.3c-0.8,0-1.5-0.3-2-0.8c-0.6-0.6-0.9-1.6-0.7-2.6c1.5-5.3,4.3-14.7,5.1-17.2c1.1-3.5,5.4-3,5.4-3
		c11.6,0,14.7,1.7,37.7,4.2c37.7-29.9,49.7-35.2,81.6-37.1c31.9-1.9,82.6-38.1,117.4-49.7c3.6-1.2,7.3-1.9,11-2.3
		c9.3-0.9,18.8,0.6,27.6,3.2l72.2,72.2C765.9,387.6,769.7,433.8,747.4,467.6z"/>
</g>
<path class="st73" d="M549,234.2L549,234.2"/>
<path class="st73" d="M510.9,269.7c-11.8,11.8-31.1,11.8-43-0.1c-1.9-1.9-3.6-4.1-4.9-6.4c-1.2-2.1,0.5-4.7,2.9-4.5
	c14.2,1.2,29.7,2.7,44.4,4.6c0.7,0.1,1.3,0.4,1.8,0.9c1.1,1.1,1.3,2.9,0.2,4.2C511.8,268.8,511.4,269.3,510.9,269.7z"/>
<path class="st73" d="M521.1,279.9c-17.4,17.4-45.8,17.4-63.3-0.1c-5.2-5.2-9-11.5-11.1-18.4c-0.6-2,1-4.1,3.1-3.9c0,0,0.1,0,0.1,0
	c0.7,0.1,1.4,0.4,1.9,0.9c0.3,0.3,0.6,0.8,0.8,1.2c1.8,5.9,5.1,11.4,9.6,15.8c15.1,15.1,39.6,15.1,54.6,0.1c2.5-2.5,4.7-5.4,6.4-8.5
	c0.6-1.1,1.9-1.7,3.1-1.5c0,0,0,0,0.1,0c0.7,0.1,1.2,0.4,1.7,0.8c0.9,0.9,1.2,2.4,0.5,3.7C526.5,273.7,524,277,521.1,279.9z"/>
<path class="st73" d="M466.7,326.8c-13.7,9.6-37.8,23.3-44.8,27.2c-0.6,0.4-1.4,0.5-2.1,0.3l-29.5-6.2c-0.6-0.1-1.1-0.4-1.5-0.8
	c-0.9-0.9-1.2-2.3-0.6-3.6l9.8-18.9c0.5-0.9,1.3-1.5,2.3-1.6c7.8-1,27.7-4.2,41.4-12.6c1-0.6,2.4-0.5,3.4,0.2
	c6.5,4.7,13.6,8.2,20.9,10.6c0.5,0.2,0.9,0.4,1.2,0.7C468.4,323.4,468.4,325.7,466.7,326.8z M543.8,302.6c7.4-7.4,13.2-16.3,17-25.9
	c0.5-1.2,0.1-2.5-0.7-3.3c-0.3-0.3-0.7-0.6-1.2-0.7c0,0,0,0-0.1,0c-1.5-0.5-3.2,0.3-3.7,1.8c-3.5,8.9-8.9,17.1-15.7,23.9
	c-25.5,25.5-66,27.7-94.2,5.1c-2-1.6-4-3.4-5.8-5.2c-4.9-4.9-9.1-10.5-12.3-16.5c-0.1-0.1-0.1-0.3-0.2-0.4l-1.9-5l-0.5,0.2
	c-2.5-5.7-4.2-11.8-5.1-18c0-0.1,0-0.2,0-0.3c-0.1-0.7-0.4-1.3-0.9-1.7c-0.5-0.5-1.2-0.8-2-0.9c-2-0.1-3.2-0.2-3.5-0.2
	c-0.1,0-0.1,0-0.2,0l-22.8-2.7c-0.9-0.1-1.9,0.2-2.5,0.9l-13.5,14c-1.1,1.2-1.1,3,0,4.2l11.9,12.7c1.1,1.1,1.1,2.9,0.1,4.1
	l-10.4,11.8c-1.1,1.2-1,3,0.1,4.2l0,0l15.6,15.2l0,0c0.9,0.9,1.2,2.4,0.6,3.5l-12.9,25c-0.6,1.2-0.3,2.7,0.6,3.6
	c0.4,0.4,0.9,0.7,1.5,0.8l39.7,8.3c0.7,0.1,1.4,0,2.1-0.3l0,0c1.7-1,42.9-23.9,54.9-34.4c0.6-0.5,1.1-1,1.6-1.4l-0.2-0.3
	C502.2,327.6,526.3,320.2,543.8,302.6z M394.5,283c-0.9,0.1-1.8-0.3-2.4-0.9l-0.1-0.1l-9.7-10.3c-1.1-1.2-1.1-3,0-4.2l7.4-7.6
	c0.7-0.7,1.6-1,2.5-0.9l19.2,2.3c0.7,0.1,1.3,0.4,1.8,0.9c0.4,0.4,0.7,1,0.8,1.6c0.8,4,2,8,3.5,11.8c0.6,1.6-0.3,3.5-1.9,4
	c-5.2,1.6-10.6,2.6-16.1,3.1L394.5,283z M396.7,316.4l-12.6-12.3l0,0c-1.1-1.1-1.2-3-0.1-4.2l8.5-9.7c0.5-0.6,1.3-1,2.1-1l5.5-0.4
	c6.5-0.5,12.9-1.8,19.1-3.8c1.1-0.4,2.3,0,3.1,0.7c0.2,0.2,0.3,0.4,0.5,0.6c3.4,5.9,7.5,11.4,12.4,16.2l0.2,0.2c0,0,0,0,0,0
	c1.5,1.5,1.1,4-0.8,4.9c-12.4,6.2-28.7,8.8-35.2,9.6C398.3,317.3,397.4,317,396.7,316.4z"/>
<path class="st73" d="M533.4,292.2c-24.2,24.2-63.7,24.2-88-0.1c-8.9-8.9-14.8-20.1-17.2-32.3c0-0.3-0.1-0.5-0.1-0.8
	c0-0.7,0.4-1.4,0.9-1.9c0.6-0.6,1.4-0.9,2.3-0.9c0,0,0,0,0.1,0c0.8,0.1,1.5,0.4,2,0.9c0.4,0.4,0.7,0.9,0.8,1.5
	c2.1,10.9,7.4,21,15.4,29.1c21.9,21.9,57.4,21.9,79.3,0.1c5-5,9-10.9,11.8-17.3c0.2-0.4,0.4-0.7,0.6-0.9c0.7-0.7,1.8-1,2.8-0.8
	c0,0,0,0,0.1,0c0.6,0.1,1.1,0.4,1.5,0.8c0.8,0.8,1.2,2.1,0.6,3.3C543.4,280.2,539,286.7,533.4,292.2z"/>
<path class="st73" d="M587.3,274.5c0.1-5.3-1.9-10.3-5.7-14c-4.6-4.6-10.5-6.1-15-6.5l-3.3-1.3c0,0,0,0,0,0
	c-1.4-0.5-30.8-11.6-98.7-16.7c7.9-3.8,17.1-7.6,27.8-10.5c17.7-4.8,45.9,4.3,56.1,8.5c3.4,1.8,18.3,9.8,36.2,18.6
	c9.2,4.6,17.6,8.6,25.3,12.2C601.7,267.9,593,271.8,587.3,274.5z M636.1,257.8c-0.4-0.4-0.9-0.7-1.4-0.8c-3.3-0.9-6.4-1.8-8.9-2.9
	c-11-4.9-23-10.7-34-16.1c-19-9.5-34.8-17.9-36.3-18.7c-0.1,0-0.2-0.1-0.2-0.1c-2.5-1.1-40.3-16.8-67.3-9.4
	c-27.9,7.6-46.1,20.2-57,25.3c-8.4,3.9-34.6,12-32.2,14.4c0.7,0.7,3.5,0.9,9.4,0.5c1-0.1,2,0,3.1,0.1c5.3,0.1,10.5,0.2,15.5,0.4
	c0.2,0,0.3,0,0.5,0c92.5,3.1,130.1,17.6,130.1,17.6l5.8,2.3l0,0c0.5,0,4.9-0.1,6.8,1.8c1.7,1.7,1.4,5.1-5.8,11.6
	c-7.4,6.7-7.8,10-6.2,11.6c1.8,1.8,6.1,1.5,6.1,1.5s16.1-0.1,25.5-5.2c9.4-5.1,34.4-15.6,39.9-15.9c0.1,0,0.1,0,0.2,0
	c2.1-0.3,11.9-3.4,20.1-2.5c0.7,0.1,1.4,0.1,2,0.2L636.1,257.8z"/>
<path class="st73" d="M415,613.8c0.8-1.5,1.5-3.1,1.9-4.8l0.2-0.6l0.1-0.4l0.2-0.8l0.4-1.7l0.7-3.3l1.4-6.6l2.8-13.3
	c1.8-8.9,3.6-17.8,5.3-26.7c1.7-8.9,3.2-17.9,4.6-26.9c1.4-9,2.6-18.1,3.2-27.5c0-0.2,0-0.3,0-0.5c2-0.7,4-1.5,5.8-2.4
	c1.4-0.6,2.7-1.3,4-2l2-1.1l2-1.2c0.7-0.4,1.4-0.8,2-1.3l1.9-1.4c1.3-0.9,2.4-2.1,3.6-3.1c0.6-0.5,1.1-1.2,1.7-1.7l1.6-1.8l1.4-2
	c0.5-0.7,1-1.3,1.4-2c3.4-5.5,5.4-11.9,5.7-18.5c0.2-6.5-1.1-13-3.7-18.8c-0.6-1.5-1.4-2.9-2.1-4.3c-0.8-1.4-1.6-2.7-2.5-4
	c-1.7-2.6-3.7-5-5.8-7.3c-0.5-0.5-1-1.1-1.5-1.6c-8.3-8.3-18.7-14.2-29.8-17.5c-11.8-3.5-24.7-4-36.9-0.5c-6.1,1.8-12,4.6-17.1,8.6
	c-5.2,4-9.6,9.2-12.5,15.2c-2.9,6-4.4,12.7-4.3,19.3c0.1,6.6,1.7,13.1,4.4,19c3,6.6,7.3,12.5,12.3,17.6c3.1,3.1,6.6,6,10.3,8.4
	c-0.2,0.3-0.3,0.7-0.6,1l-0.8,1.1l-0.4,0.6l-0.4,0.6c-2.2,3.1-5,6.2-7.7,9.2c-1.4,1.5-2.9,3-4.3,4.5l-4.5,4.4l-4.7,4.7
	c-1.6,1.5-3,3.2-4.6,4.8c-6,6.5-11.7,13.3-16.8,20.6c-2.5,3.7-5,7.4-7.3,11.3l-1.7,3l-1.6,3c-0.5,1-1,2.1-1.5,3.1
	c-0.3,0.5-0.5,1.1-0.7,1.6l-0.4,0.9l-0.1,0.4l-0.1,0.1c-0.1,0.2-0.3,0.5-0.3,0.7c-0.2,0.4-0.4,0.9-0.5,1.3c-0.2,0.4-0.3,0.9-0.4,1.3
	l-0.3,1.3c-0.2,0.9-0.2,1.7-0.3,2.6c0,0.9,0,1.7,0,2.6c0.3,3.4,1.5,6.5,3,9.1c1.5,2.6,3.3,4.7,5.2,6.6c1.9,1.9,4,3.6,6.1,5.1
	c8.3,5.8,17,9.6,25.9,12.8c8.9,3.2,17.9,5.6,27,7.4c2.3,0.5,4.6,0.9,6.9,1.3l0.9,0.1l0.2,0l0.3,0l0.6,0.1c0.8,0.1,1.7,0.1,2.6,0.1
	c1.7,0,3.4-0.3,5.1-0.8c0.8-0.2,1.6-0.6,2.4-0.9c0.8-0.4,1.6-0.7,2.3-1.2c1.5-0.9,2.8-2,4-3.2C413.2,616.6,414.1,615.2,415,613.8z
	 M399.6,610.3c-0.5,0.2-1.1,0.2-1.6,0.2c-0.3,0-0.5,0-0.8-0.1l-0.2,0l-0.1,0l-0.2,0l-0.8-0.1c-2.2-0.4-4.3-0.8-6.5-1.2
	c-8.6-1.7-17-4-25.2-6.9c-4.1-1.5-8-3.1-11.9-4.9l-2.8-1.4c-0.9-0.5-1.8-1-2.7-1.5c-1.9-1-3.5-2.1-5.2-3.2c-1.6-1.2-3.1-2.4-4.4-3.7
	c-1.2-1.2-2.3-2.5-3-3.8c-0.7-1.3-1.2-2.5-1.3-3.6c0-0.3,0-0.5,0-0.8c0.1-0.2,0-0.5,0.1-0.7c0-0.1,0-0.2,0.1-0.3
	c0-0.1,0.1-0.2,0.1-0.3c0-0.1,0.1-0.2,0.1-0.2c0,0,0,0,0,0v0c0,0-0.1,0.1-0.1,0.2l0.7-1.4l0.2-0.5l0.3-0.6c0.2-0.4,0.4-0.9,0.6-1.3
	c0.4-0.9,0.9-1.8,1.3-2.7l1.4-2.7l1.5-2.6c2.1-3.5,4.3-7,6.7-10.3c4.8-6.7,10-13.2,15.7-19.3c1.4-1.5,2.8-3.1,4.3-4.5l4.4-4.4
	l4.7-4.6c1.5-1.6,3.1-3.2,4.6-4.8c3-3.3,6-6.6,8.8-10.5c1.4-1.9,2.8-4,4-6.6l0.4-1.1l0.2-0.5c0.1-0.2,0.1-0.4,0.2-0.6
	c0.1-0.5,0.3-0.9,0.4-1.4c0.1-0.2,0.1-0.5,0.2-0.7c0-0.3,0.1-0.6,0.1-1c0.1-1.2,0.1-2.9-0.8-4.9c-0.3-0.5-0.5-1-0.9-1.5
	c-0.3-0.4-0.6-0.7-0.9-1c-0.1-0.1-0.3-0.3-0.4-0.4c-0.5-0.4-1-0.8-1.6-1.1c-0.2-0.1-0.3-0.2-0.5-0.2c-4-2.4-7.6-5.2-10.9-8.4
	c-3.8-3.8-7-8.2-9.3-12.9c-2.1-4.5-3.3-9.3-3.5-14c-0.2-4.8,0.8-9.5,2.8-13.8c4-8.6,12.4-15.1,22-18c9.7-3,20.5-2.8,30.6,0
	c9.8,2.7,19,7.9,26.2,15c0.2,0.2,0.4,0.4,0.7,0.7c1.8,1.9,3.4,3.9,4.9,6c0.8,1,1.4,2.1,2.1,3.2c0.6,1.1,1.2,2.2,1.7,3.4
	c2.1,4.6,3.2,9.5,3.1,14.4c-0.1,4.9-1.5,9.7-4,13.9c-0.3,0.6-0.7,1-1,1.6l-1.1,1.5l-1.2,1.4c-0.4,0.5-0.8,1-1.3,1.4l-1.4,1.3
	c-0.4,0.5-0.9,0.8-1.4,1.2l-1.5,1.2c-0.5,0.4-1.1,0.7-1.6,1l-1.6,1l-1.8,1c-1.2,0.7-2.4,1.3-3.6,1.9c-2.4,1.2-4.8,2.2-7.2,2.9
	c-4.8,1.5-10.4,1.9-16.1,2.6l0,0c-2.3,0.3-3.9,2.3-3.7,4.6c0.1,1,0.5,1.9,1.2,2.6c0.9,0.9,2.1,1.3,3.4,1.2c2.3-0.2,4.6-0.4,7-0.7
	c-0.6,7.6-1.7,15.4-2.9,23.2c-1.4,8.8-2.9,17.6-4.6,26.4c-1.7,8.8-3.4,17.6-5.2,26.4l-2.8,13.2l-1.4,6.6l-0.7,3.3l-0.5,2.5l-0.1,0.4
	c0,0.1-0.1,0.2-0.1,0.2C403.4,607.9,401.7,609.7,399.6,610.3z"/>
<path class="st73" d="M377.8,722.4c-5.9-0.3-12.8-1.1-20.3-2.9c-12.9-2.9-27.4-8.6-41.2-19l-1.8-1.3c-4.8-3.6-10.7-8-15.8-13.2
	c-6.3-6.3-11.6-13.8-12.4-22.2c-0.5-5,0.6-9.4,2.2-13.3c0.8-2,1.7-3.9,2.6-5.7c0.6-1.3,1.2-2.5,1.8-3.7c1.6-3.6,3.1-7.4,4.5-11.1
	c1-2.6,2-5.2,3.1-7.8l10.3-25c1.4-3.4,5.3-5,8.7-3.6c0.8,0.3,1.6,0.8,2.2,1.4c1.9,1.9,2.5,4.7,1.4,7.3l-10.3,25c-1,2.5-2,5-3,7.5
	c-1.5,3.8-3,7.7-4.7,11.6c-0.6,1.5-1.3,2.8-2,4.2c-1.9,3.9-3.6,7.4-3.6,10.8c0,0.3,0,0.6,0,1c0.5,4.7,4.1,9.6,8.6,14
	c4.6,4.6,10.3,8.9,14.4,12l1.8,1.4c3.4,2.5,6.8,4.8,10.2,6.7c16,9,32.3,11.8,43.9,12.5c3.5,0.2,6.5-2.4,6.9-5.8l8.3-70
	c0.4-3.7,3.8-6.3,7.4-5.8c1.5,0.2,2.9,0.9,3.9,1.9c1.4,1.4,2.2,3.4,1.9,5.5l-8.3,70C397.5,715.3,388.3,723,377.8,722.4z"/>
<g>
	<g>
		
			<linearGradient id="SVGID_74_" gradientUnits="userSpaceOnUse" x1="125.9206" y1="250.1813" x2="125.9206" y2="362.3272" gradientTransform="matrix(0 1 -1 0 801.3597 6.0268)">
			<stop  offset="0" style="stop-color:#686868"/>
			<stop  offset="0.867" style="stop-color:#000000"/>
		</linearGradient>
		<path class="st74" d="M440.4,99.1c0,1.4-0.2,2.7-0.5,4.1c-3.8,16.9,5.7,29.9,12.4,36.6c4.5,4.5,25,14,37.8,19.6
			c0.3,0.1,0.6,0.3,0.8,0.5c1.4,1.4,0.5,4-1.7,4c-6-0.1-11.4-0.3-16.3-0.6c10.3,3.8,19.4,6.8,24.2,8.4c6.9-0.2,14.3,0.1,22.1,1.1
			h32.1l-0.1-0.1c-10.2-3.6-22.3-7.5-28.9-8.5c-1.4-0.2-3.3-0.7-5.4-1.3c-16.1-4.9-49.2-20.9-59-30.8c-0.5-0.5-1-1-1.3-1.5
			c-6.9-8.6-11.3-17.1-5.7-27.4c1.4-2.7,3.5-5.5,6.4-8.5c2.9-3,7.8-3.2,13.7-1.7c0,0,0.1,0,0.1,0c0.4,0.3,0.8,0.7,1.2,1l-2.3-2.3
			l-30.5-0.8C440.1,93.6,440.6,96.3,440.4,99.1z"/>
		
			<linearGradient id="SVGID_75_" gradientUnits="userSpaceOnUse" x1="117.3491" y1="303.7208" x2="117.3491" y2="338.8496" gradientTransform="matrix(0 1 -1 0 801.3597 6.0268)">
			<stop  offset="0" style="stop-color:#686868"/>
			<stop  offset="0.867" style="stop-color:#000000"/>
		</linearGradient>
		<path class="st75" d="M463.3,110c-1.1,2.1-2,3.8,4.3,11.6c0,0,0.1,0.1,0.3,0.3c4.4,4.4,17.1,11.6,29.7,17.6l-31.4-31.4
			c-0.3-0.3-0.7-0.7-1-1C464.4,108.2,463.8,109.1,463.3,110z"/>
	</g>
	<g>
		<path class="st73" d="M467.9,121.9c-0.2-0.2-0.3-0.3-0.3-0.3c-6.3-7.9-5.4-9.6-4.3-11.6c0.5-0.9,1.1-1.8,1.9-2.8
			c0.4,0.3,0.7,0.7,1,1l31.4,31.4C485,133.5,472.3,126.4,467.9,121.9z M476.4,98.1c-1.8-1.8-3.6-3.4-5.5-5c0,0-0.1,0-0.1,0
			c-5.9-1.5-10.8-1.3-13.7,1.7c-2.9,3-5,5.8-6.4,8.5c-5.6,10.4-1.2,18.8,5.7,27.4c0.4,0.5,0.8,1,1.3,1.5c9.9,9.9,42.9,25.8,59,30.8
			c2.2,0.7,4,1.1,5.4,1.3c6.6,1,18.7,5,28.9,8.5L476.4,98.1z"/>
	</g>
</g>
<path class="st73" d="M404,195.6c-16.3-3.6-29.7-11.1-42.7-18.4c-2.1-1.2-4.1-2.3-6.1-3.4c-11.5-6.3-20-12.3-25.4-17.6
	c-1.2-1.2-2.2-2.3-3-3.4c-1.2-1.6-1.7-2.6-1.8-3.1c0.2-0.3,0.5-0.7,0.9-1.1c0.9-0.9,1.7-1.6,2.5-2.2c1.4-0.9,3.1-2.1,8.7,0.6
	c5.6,2.7,11.9,7.9,16.1,11.6c24.7,21.4,50.9,33.5,80.1,36.9c7.3,0.8,14.9-0.2,23.4-1.7C437.2,198.5,419.8,199.1,404,195.6z
	 M568.4,190.1c-12.8-6.5-26.8-12.5-39.9-15.5c-2.5-0.6-5-1.1-7.5-1.4c-39.9-5.8-68.8,8.1-85.9,6.1c-16.6-1.9-42.1-7.7-71.2-33
	c-6.7-5.9-13.3-10.9-19.8-14c-8.6-4.2-17-4.9-25,0.5c-1.7,1.2-3.4,2.6-5.1,4.3c-1.2,1.2-2.2,2.5-3,3.7c-4.5,7.1-2.9,14.5,2.6,21.8
	c1.3,1.7,2.8,3.4,4.5,5.1c7,7,17.3,13.9,29.1,20.4c29,16,60.7,37.8,124.1,18.6c26.5-10.2,58.1-7.1,97.2,7.9
	c14,5.4,29,12.3,45.1,20.7L568.4,190.1z"/>
<path class="st73" d="M307.8,369c-9.9,6-27.4,10.1-49.3,11.5c-21.8,1.4-42.3-0.2-54.3-2.1c-18.8-3-61.4-5.9-101.7,1.9
	c2-2.8,4.2-5.4,6.7-7.8l8.1-8.1c1.3-1.3,2.6-2.4,4-3.5c0,0,0,0,0.1-0.1c6.7-5.1,15.2-8,25.4-8.5c9.4-0.5,20.4,1.1,31.7,4.7
	c47,14.7,91.8,17.6,134.1,8.9C310.8,367.1,309.2,368.2,307.8,369z M371.3,327.8c0.9-1.5,0.5-3-0.5-4c-0.9-0.9-2.4-1.3-3.8-0.6
	c-57.6,30.9-120.2,32.7-182.3,13.3c-12.6-3.9-26.1-6.3-39.2-5.6c-13.4,0.7-26.3,4.5-37.3,12.8c-2.1,1.6-4.2,3.4-6.2,5.4
	c0,0-8.1,8.1-8.1,8.1c-10.6,10.6-17.9,23.3-21.8,36.9c-0.3,1.1-0.4,2.2-0.4,3.3c0,0,0,0,0,0c0,0,0,0,0,0l0,0
	c0.1,2.8,1.4,5.5,3.3,7.4c2.4,2.4,5.8,3.6,9.4,2.4c2.6-0.9,5.3-1.7,8-2.5c38.6-10.7,86.9-8.6,108.5-5.1
	c29.4,4.7,88.8,5.5,118.2-12.2C340,374.7,361.1,344.1,371.3,327.8z"/>
<path class="st73" d="M384.8,378.4L384.8,378.4"/>
<path class="st73" d="M146.2,469.1c-6.6,4.8-12.8,9.4-17.5,11.8c-0.6,0.3-1.1,0.5-1.5,0.7c-0.4-0.4-0.8-0.7-1.3-1.1
	c-2.6-2.3-5.1-4.7-7.6-7.2c-2.5-2.5-4.8-5-7-7.5c-0.1-0.1-0.2-0.2-0.3-0.3c-4.5-5.1-8.3-10-11.2-14.6c-0.1-0.1-0.2-0.3-0.3-0.4
	c0,0,0-0.1-0.1-0.1c-2.5-3.9-3.8-6.8-4.5-8.7c0.8-0.4,1.9-0.8,3.1-1.2c0,0,0,0,0.1,0c18.6-6.1,52.6-5.1,72.9-4.4
	c3.5,0.1,6.8,0.2,9.6,0.3c8.5,0.2,16.9,0.7,25.6,1.4C181.5,443.1,161.7,457.7,146.2,469.1z M354.1,401.1
	c9.4-11.4,15.2-22.6,18.2-37.2c0.1-0.7-0.1-1.3-0.5-1.7c-0.7-0.7-1.9-0.9-2.7,0c-20.3,19.6-41.2,44.3-68.8,51.1
	c-42,10.4-79.9,1.4-119.2,0.7c-20.2-0.4-64.2-3.2-90,5.3c-7.4,2.4-13.3,5.8-16.7,10.4c-2.3,3.1-3.1,6.8-2.7,11c0,0,0,0,0,0
	c0,0,0,0,0,0c0.6,6.5,3.9,14.1,8.8,21.9c0,0,0,0.1,0.1,0.1c0,0,0,0,0,0s0,0,0,0c0,0.1,0.1,0.1,0.1,0.2c3.8,6,8.6,12.1,13.7,17.9
	l0.1,0.1c2.6,2.9,5.2,5.7,8,8.4c2.8,2.8,5.7,5.5,8.5,8.1c1.1,1,2.3,2,3.4,2.9c7.5,6.4,15.6,5.3,24.7,0.7
	c22.9-11.7,51.8-46.5,93.2-42.2c16.2,1.7,33.3,3.7,49.4-0.1c15.4-3.7,28.1-13.3,39.6-23.8C332.9,424.4,344,413.2,354.1,401.1z"/>
<path class="st73" d="M254.5,520.8c-11.9,6-24.9,10.3-34.8,11.5l-1.9,0.2c-7.3,0.9-14.9,1.9-22,1.9c-8.8,0-14.9-1.4-18.1-4.3
	c-0.1-0.1-0.2-0.2-0.4-0.3c-0.6-0.6-2.3-2.5-1.7-4.7c0.1-0.2,0.1-0.4,0.2-0.6c0,0,0,0,0-0.1c0.9-2.3,2.8-5,5.7-8.1
	c9-9.6,21.2-16.2,34.5-18.7c7.8-1.5,16.5-0.5,26.6,0.7c7.7,0.9,15.7,1.8,24.4,1.8c5.9,0,11.4-0.5,16.6-1.3c-0.4,0.5-0.8,1-1.1,1.4
	C277.1,507.1,266.9,514.6,254.5,520.8z M301,515c23.4-29.3,25.8-45.8,31.8-59.6c0.6-1.4,0.2-2.7-0.6-3.5c-1-1-2.8-1.4-4.2-0.2
	c-12.6,10.5-31.4,24.7-61.1,24.9c-18.6,0.1-36.7-5.6-55.2-2.1c-17.9,3.4-34.8,12.4-47.3,25.8c-4.3,4.6-8.2,9.8-10.4,15.6
	c-0.3,0.7-0.5,1.5-0.8,2.2c-3.1,10.2,0.1,20.8,7.5,28.3c0.4,0.4,0.9,0.9,1.4,1.3c9.1,8.1,21.4,10.3,33.9,10.2
	c9.2,0,18.5-1.3,26.7-2.3C247.9,552.6,284.6,535.5,301,515z"/>
<path class="st73" d="M260.1,606.1c-4-1.1-8.1-3.1-11.8-5.6c-1.9-1.3-3.6-2.7-5.1-4.2c-1.4-1.4-2.6-2.8-3.6-4.3
	c-0.3-0.4-0.5-0.8-0.7-1.2c3.7-1.5,9.3-3.1,12.7-4c4.1-1.1,8.4-2.3,12.4-3.8c4.5-1.7,8.9-3.5,13-5.3c0,0,0,0.1,0,0.1
	c-3.6,8.5-7,16.5-10.7,24.1c-1.4,2.9-2.5,4.3-3,4.8C262.6,606.6,261.5,606.5,260.1,606.1z M288.4,612.5
	c10.4-21.3,18.2-44.7,30.4-65.5c6.1-10.4,13.4-20.5,22.7-28.4c3.7-3.2,8.2-6.1,11.2-10.1c1.8-2.5,3-5.7,2.4-8.8c-0.2-1-0.6-2-1-2.9
	c-1.4-2.9-3.5-5.6-4.4-8.7c-1.3-4.5-1-9.4-3.3-13.6c-0.8-1.5-1.4-2.5-1.9-3c-1.2-1.2-1.8,0.2-3.5,3.1c-2.1,3.7-3.4,8.2-5.2,12.2
	c-7.6,16.1-17.5,31.6-30.5,44c-14,13.3-31.9,22.4-49.9,29.2c-11.5,4.3-31.6,6.7-39.4,18.1c-1.3,1.8-2.2,3.9-2.7,6.3
	c-1,4.8,0.2,9.7,2.1,14.2c1.1,2.5,2.4,4.8,3.9,7.1c1.9,2.9,4.2,5.6,6.6,8.1c2.6,2.6,5.4,5,8.5,7.1c5.9,4.1,12.6,7.3,19.2,9.1
	c4.9,1.4,10.2,1.8,15.1,0.8c2.1-0.4,4.2-1.1,6.1-2.2C281,625.1,285.3,619,288.4,612.5z"/>
<g>
	<path class="st73" d="M538.7,700.8L538.7,700.8"/>
	<path class="st73" d="M531.2,686.2l-54.1,54.1c-23.5,23.5-57.3,30.6-87.2,21.5c-0.7-0.2-1.2-0.5-1.6-1c-2.1-2.1-0.9-6.4,2.7-6.6
		c7.3-0.3,14.4-2.8,20.4-9.2c0.7-0.8,1.8-1.2,2.9-1.1c-0.6,0-1.2,0-1.8-0.1c0.3-0.4,0.6-0.8,0.9-1.2c0.1-0.2,0.3-0.4,0.4-0.6
		c0.7-1.2,3.2-5.8,4.6-14.2c1.3-7.5,0.1-50.4,2-73.5c0.4-4.4,5.7-6.3,8.8-3.2c0.1,0.1,0.2,0.2,0.3,0.3c5.3,6.1,11.8,13.2,18.7,20.1
		c10.7,10.7,22.4,20.9,32.2,25.8c5,2.6,10.6,3.2,16.4,2.6l-2.4-0.5c0.6-0.6,2.8,0.5,3.7,0.4C511.8,698,531.1,686.1,531.2,686.2
		C531.3,686.2,531.3,686.2,531.2,686.2z"/>
</g>
<path class="st73" d="M576.8,497.2c-5.8,3.6-10.9-2.5-10.9-2.5L552.6,477c14.5,10.9,28.8,12.8,28.8,12.8S582.6,493.6,576.8,497.2z
	 M579.3,591.8c7.2-7.2,2.4-7.7,1.2-10.6c0,0,7.4-4,8.5-5.3c1.1-1.3-3.2-12.6-0.5-17.4c0,0,6.2-0.7,12.4-3.9c6.2-3.3,11.6-0.4,9-12.7
	s-15.1-30.6-13.9-42.7c0,0,4.8-10.9,8.4-14.9c3.6-4-3.5-26.3-3.5-26.3l-5.6-21.2c0,0,35.9,3.3,58.4-8.3c22.8-1.4,62,5.1,88.3,48.1
	c0,0-14.9-37.4-58.4-50.4S545,419.4,545,419.4s-27.2,1.1-50.7,25.3l-10.1,10.9c0,0-2.9,27.5-22.4,42s-20.5,23.9-20.5,23.9l-3.2,15.9
	c-0.7,3.3-0.4,6.7,0.7,9.8c4.8,13.1,20.6,50.1,57.2,89.7c0,0,23.5-15.6,48.6-6.5s26.8-13.7,27.5-21C572.8,602.2,572,599,579.3,591.8
	z"/>
<path class="st73" d="M567.9,650.8c-16.4,14-39.9,17.1-56,15.4c-16.2-1.7-34.6-25.2-34.6-25.2l-46.6-52.7c0.6-5.7,1.2-11.2,1.8-16.5
	l3.9,5.9c0,0,50.6,68.4,70.6,81.3C527,671.8,567.9,650.8,567.9,650.8z"/>
<path class="st73" d="M555.5,663.2c0,0-43.6,41.9-70.8,28.1c-19.7-10-44.9-38.8-57.4-54l0,0c0.5-13.9,1.3-27.3,2.4-40
	c14.2,16.4,54.2,61.9,68,71.2C514.7,679.8,555.5,663.2,555.5,663.2z"/>
<path class="st76" d="M399.6,610c-0.5,0.2-1,0.2-1.6,0.2c-0.3,0-0.5,0-0.8-0.1l-0.2,0l-0.1,0l-0.2,0L396,610
	c-2.1-0.4-4.2-0.8-6.3-1.2c-8.3-1.7-16.6-3.9-24.5-6.8c-4-1.4-7.8-3-11.6-4.9l-2.8-1.4c-0.9-0.5-1.8-1-2.6-1.5c-1.8-1-3.4-2.1-5-3.2
	c-1.6-1.2-3-2.4-4.3-3.7c-1.2-1.2-2.2-2.5-3-3.8c-0.7-1.3-1.1-2.5-1.2-3.6c0-0.3,0-0.5,0-0.8c0.1-0.2,0-0.5,0.1-0.7
	c0-0.1,0-0.2,0.1-0.3c0-0.1,0.1-0.2,0.1-0.3c0-0.1,0.1-0.2,0.1-0.2c0,0,0,0,0,0v0c0,0-0.1,0.1-0.1,0.2l0.7-1.4l0.2-0.5l0.3-0.6
	c0.2-0.4,0.4-0.9,0.6-1.3c0.4-0.9,0.8-1.8,1.3-2.7l1.4-2.7l1.5-2.6c2-3.5,4.2-6.9,6.5-10.3c4.6-6.7,9.8-13.2,15.3-19.2
	c1.4-1.5,2.8-3,4.2-4.5l4.3-4.4l4.6-4.6c1.5-1.6,3-3.2,4.5-4.8c3-3.3,5.9-6.6,8.6-10.5c1.4-1.9,2.7-4,3.9-6.6l0.4-1.1l0.2-0.5
	c0.1-0.2,0.1-0.4,0.2-0.6c0.1-0.5,0.2-0.9,0.4-1.4c0-0.2,0.1-0.5,0.2-0.7c0-0.3,0.1-0.6,0.1-1c0.1-1.1,0.1-2.9-0.8-4.9
	c-0.2-0.5-0.5-1-0.8-1.5c-0.3-0.4-0.6-0.7-0.9-1c-0.1-0.1-0.3-0.3-0.4-0.4c-0.5-0.4-1-0.8-1.6-1.1c-0.1-0.1-0.3-0.2-0.5-0.2
	c-3.8-2.3-7.4-5.2-10.6-8.4c-3.7-3.8-6.8-8.1-9-12.9c-2.1-4.4-3.2-9.2-3.4-14c-0.2-4.7,0.8-9.5,2.7-13.8c3.9-8.6,12.1-15,21.5-17.9
	c9.5-3,20-2.9,29.8-0.1c9.5,2.7,18.5,7.8,25.5,14.9c0.2,0.2,0.4,0.4,0.6,0.7c1.7,1.9,3.3,3.9,4.8,6c0.7,1,1.4,2.1,2,3.2
	c0.6,1.1,1.2,2.2,1.7,3.4c2,4.6,3.1,9.5,3,14.4c-0.1,4.9-1.5,9.7-3.9,13.9c-0.3,0.6-0.6,1-1,1.5l-1,1.5l-1.2,1.4
	c-0.4,0.5-0.8,1-1.2,1.4l-1.3,1.3c-0.4,0.5-0.9,0.8-1.4,1.2l-1.5,1.2c-0.5,0.4-1,0.7-1.6,1l-1.6,1l-1.7,1c-1.2,0.7-2.4,1.3-3.5,1.9
	c-2.4,1.2-4.7,2.2-7.1,2.9c-4.7,1.4-10.2,1.9-15.7,2.6l0,0c-2.2,0.3-3.8,2.3-3.6,4.6c0.1,1,0.5,1.9,1.2,2.6c0.8,0.9,2,1.3,3.3,1.2
	c2.2-0.2,4.5-0.4,6.8-0.7c-0.6,7.6-1.7,15.4-2.8,23.1c-1.3,8.8-2.9,17.6-4.5,26.4c-1.6,8.8-3.3,17.6-5.1,26.3l-2.7,13.1l-1.4,6.6
	l-0.7,3.3l-0.5,2.4l-0.1,0.4c0,0.1,0,0.2-0.1,0.2C403.4,607.7,401.7,609.4,399.6,610z"/>
<path class="st73" d="M423.2,474.4c-5.5,1.8-11.8,1.6-17.9-0.7c-3.9-1.5-7.4-3.7-10.2-6.5c-5.7-5.7-7.8-12.9-5.5-18.9
	c1.6-4.4,5.4-7.8,10.6-9.5c5.5-1.8,11.9-1.6,17.9,0.7c3.9,1.5,7.5,3.7,10.3,6.5c1.5,1.5,2.7,3.1,3.7,4.7c2.8,4.8,3.4,9.7,1.8,14.2
	c-0.7,1.9-1.9,3.7-3.4,5.2C428.5,472,426.1,473.4,423.2,474.4z M441.5,467.7c2.5-6.8,1.7-14.3-2.4-21.2c-1.4-2.3-3-4.5-5-6.4
	c-3.6-3.6-8.1-6.5-13.2-8.4c-7.8-2.9-16.1-3.2-23.4-0.8c-7.6,2.5-13.1,7.6-15.7,14.4c-3.5,9.4-0.3,19.9,7.4,27.6
	c3.5,3.5,8,6.4,13.1,8.4c7.8,2.9,16.1,3.2,23.4,0.8c4.1-1.4,7.7-3.5,10.4-6.3C438.6,473.6,440.3,470.8,441.5,467.7z"/>
<g>
	<g>
		<path class="st73" d="M408.6,525.5L408.6,525.5L408.6,525.5L408.6,525.5L408.6,525.5"/>
		<path class="st73" d="M371.3,570c1.6-2.6,3.4-5.3,5.2-7.9c0.9-1.3,1.9-2.6,2.8-3.9c1-1.3,1.9-2.5,2.9-3.8l-1.5,9.7l-1.5,9.7
			c-1.6-0.7-3.1-1.3-4.5-2C373.6,571.2,372.4,570.6,371.3,570z M394,587.7l10.5-70.3c0.2-1.5-0.3-2.8-1.2-3.6
			c-1.5-1.5-4.1-1.9-6-0.1l-1.8,1.8c0,0-28.7,27.4-42,52.8c-1.9,3.5-1.1,7.8,1.6,10.5c0.3,0.3,0.6,0.5,0.9,0.8
			c5.1,4,14.4,9.5,29.7,13.7C389.5,594.2,393.4,591.6,394,587.7z"/>
	</g>
</g>
</svg>
